<svg width="150" height="150" viewBox="0 0 150 150" fill="none" xmlns="http://www.w3.org/2000/svg">
<g opacity="0.25">
<path d="M95.1031 50.0705C95.1031 48.8597 94.587 47.4131 93.834 46.4839L89.6123 41.1991C88.7265 40.121 87.1919 39.384 85.8037 39.384H84.5941V34.6166C84.5941 33.8487 83.9738 33.2295 83.207 33.2295H79.1775V31.2222H80.5943C81.0223 31.2222 81.4206 31.03 81.6723 30.7061C81.9379 30.3811 82.0408 29.9531 81.9527 29.5399L80.2109 21.3781C80.0782 20.7292 79.5025 20.2715 78.8525 20.2715H71.1038C70.4401 20.2715 69.8793 20.7292 69.7454 21.3781L67.9738 29.5388C67.8857 29.9519 67.9887 30.3799 68.2542 30.7049C68.5197 31.0299 68.918 31.221 69.3323 31.221H70.749V33.2295H66.7195C65.9516 33.2295 65.3325 33.8498 65.3325 34.6165V39.384H64.1217C62.7198 39.384 61.1841 40.1073 60.2994 41.199L56.0926 46.3945C55.3247 47.3387 54.8086 48.7852 54.8086 49.996V56.3874V56.4904V56.535C54.8086 56.5797 54.8235 56.6232 54.8235 56.6678C54.883 57.7012 55.2961 58.8525 55.9015 59.7235L58.1445 64.1511C58.1594 64.3136 58.1594 64.5642 58.1445 64.7267L55.9015 69.1394C55.2812 70.0401 54.8681 71.2497 54.8235 72.3129C54.8235 72.3426 54.8086 72.3724 54.8086 72.3861V72.4159V72.4754V122.599C54.8086 123.573 55.089 124.872 55.4872 125.773C55.6944 126.245 56.0331 126.644 56.476 126.924L60.6233 129.492C60.9918 129.713 60.9918 129.728 74.2029 129.728H74.9708C88.9487 129.728 88.9487 129.728 89.3172 129.492L93.4496 126.924C93.8924 126.644 94.2323 126.26 94.4383 125.773C94.8366 124.872 95.117 123.558 95.117 122.599L95.1181 72.5632V72.4454V72.4007C95.1181 72.3561 95.1032 72.3126 95.1032 72.268C95.03 71.2346 94.6306 70.0833 94.0252 69.2273L91.7822 64.8134C91.7673 64.636 91.7673 64.3556 91.7822 64.1931L94.0252 59.7951C94.6603 58.8944 95.0586 57.6848 95.1032 56.6216C95.1032 56.5919 95.1181 56.577 95.1181 56.5484V56.5186V56.4591V50.0689L95.1031 50.0705ZM72.2102 23.074H77.7011L78.8523 28.447H71.0588L72.2102 23.074ZM73.5389 31.222H76.3874V33.2293H73.5389V31.222ZM68.1064 36.0182H81.8039V39.3838H68.1064V36.0182ZM58.2474 48.1662L62.4542 42.9706C62.7941 42.5426 63.5608 42.1879 64.1078 42.1879H66.455C66.4996 42.1879 66.5431 42.173 66.5877 42.173C66.6324 42.173 66.6759 42.1879 66.7205 42.1879H83.2079C83.2525 42.1879 83.296 42.173 83.3406 42.173C83.3853 42.173 83.4288 42.1879 83.4734 42.1879H85.8206C86.3665 42.1879 87.1344 42.5426 87.4594 42.9558L91.6811 48.2395C92.0358 48.6823 92.3299 49.5235 92.3299 50.0842V55.162H57.5985V50.011C57.5985 49.4354 57.8937 48.6091 58.2485 48.1662L58.2474 48.1662ZM91.9154 124.608L88.1663 126.94C85.1701 126.97 64.7575 126.97 61.7601 126.94L58.011 124.608C57.7901 124.062 57.5978 123.161 57.5978 122.615V73.789H92.3293V122.615C92.3293 123.176 92.1382 124.062 91.9161 124.608H91.9154ZM91.7094 58.2472C91.6648 58.3067 91.6213 58.38 91.5915 58.4395L89.2146 63.1041C88.9193 63.6946 88.9193 65.3186 89.2146 65.9091L91.5915 70.5737C91.6213 70.6469 91.6648 70.7065 91.7094 70.766C91.754 70.8255 91.7975 70.9136 91.8421 70.9868L58.0248 70.9846C58.0843 70.8816 58.1426 70.7774 58.2021 70.6893C58.2468 70.6298 58.2903 70.5566 58.32 70.497L60.697 65.8175C60.9773 65.2567 61.0369 63.6774 60.697 63.0274L58.32 58.3651C58.2903 58.2918 58.2468 58.2323 58.2021 58.1728C58.1575 58.0996 58.114 58.0252 58.0545 57.9371H91.8836C91.8401 58.0401 91.7806 58.1591 91.7074 58.2472H91.7094Z" fill="#2A9D8F"/>
</g>
</svg>
