<svg width="100" height="100" viewBox="0 0 100 100" fill="none" xmlns="http://www.w3.org/2000/svg">
<g opacity="0.25">
<path d="M87.1973 50.0397C87.1973 51.8555 87.0722 53.6622 86.8319 55.4596C86.87 55.2002 86.899 54.95 86.9379 54.6906C86.4573 58.1597 85.5349 61.5418 84.1899 64.7705C84.286 64.5401 84.3821 64.3089 84.4783 64.0785C83.6711 65.9812 82.7296 67.8261 81.6431 69.5945C81.1052 70.4597 80.5384 71.305 79.9425 72.1312C79.7983 72.3235 79.6541 72.5157 79.5099 72.708C79.3848 72.8713 79.1064 73.1886 79.616 72.5737C79.5489 72.6599 79.4817 72.7469 79.4146 72.8232C79.088 73.2459 78.7417 73.6494 78.3961 74.063C77.0991 75.5812 75.6769 77.0034 74.1679 78.3102C73.8223 78.6078 73.4668 78.9061 73.1014 79.1945C72.919 79.3387 72.7458 79.4829 72.5635 79.6171C73.3035 79.0312 72.6116 79.579 72.4193 79.7232C71.6411 80.3 70.8431 80.8478 70.0267 81.3757C68.1628 82.5575 66.2021 83.5859 64.175 84.4503C64.4054 84.3542 64.6365 84.2581 64.867 84.1619C61.5802 85.5459 58.1211 86.4873 54.5847 86.968C54.8441 86.9298 55.0944 86.9008 55.3538 86.8619C51.7794 87.3327 48.1561 87.3235 44.5719 86.852C44.8313 86.8902 45.0816 86.9191 45.341 86.9581C41.8429 86.4774 38.4318 85.5458 35.1839 84.1709C35.4144 84.2671 35.6455 84.3632 35.8759 84.4593C34.0502 83.6811 32.2916 82.7778 30.6001 81.7494C29.783 81.2497 28.9858 80.721 28.1976 80.164C27.8322 79.9046 27.4675 79.6261 27.102 79.3568C27.8993 79.9336 27.131 79.3759 26.9769 79.2508C26.7846 79.0966 26.5832 78.9334 26.391 78.7701C24.8437 77.4823 23.4025 76.0793 22.0666 74.5709C21.7591 74.2154 21.4516 73.8598 21.1533 73.5043C20.99 73.3029 20.8268 73.1007 20.6635 72.8985C20.5964 72.8215 20.5384 72.7353 20.4712 72.6491C21.029 73.3411 20.6536 72.8795 20.5384 72.7353C19.9425 71.9471 19.3657 71.1308 18.8279 70.2947C17.569 68.3537 16.4925 66.2968 15.5892 64.1736C15.6853 64.404 15.7815 64.6351 15.8776 64.8655C14.5127 61.6177 13.5811 58.1966 13.1005 54.7085C13.1386 54.9679 13.1676 55.2182 13.2065 55.4776C12.7259 51.8932 12.7259 48.261 13.2065 44.6666C13.1684 44.926 13.1394 45.1763 13.1005 45.4357C13.5811 41.9476 14.5035 38.5364 15.8585 35.2878C15.7623 35.5182 15.6662 35.7494 15.5701 35.9798C16.3773 34.0869 17.3096 32.2513 18.3953 30.5027C18.9141 29.6573 19.4718 28.8303 20.0577 28.0232C20.2118 27.8118 20.3652 27.6005 20.5284 27.3892C20.5956 27.3029 20.6536 27.2259 20.7207 27.1397C20.2401 27.7836 20.4514 27.4853 20.5574 27.351C20.884 26.9375 21.2105 26.5339 21.547 26.1402C22.8638 24.593 24.295 23.1518 25.8233 21.8258C26.1689 21.5282 26.5153 21.2398 26.8609 20.9514C27.0532 20.7973 27.2455 20.6249 27.4568 20.4807C27.4377 20.4906 26.8709 20.9324 27.2355 20.6539C27.3607 20.5677 27.4759 20.4715 27.601 20.3846C28.37 19.8078 29.1574 19.2699 29.9647 18.7511C31.8484 17.5503 33.8274 16.5119 35.8844 15.6376C35.654 15.7338 35.4228 15.8299 35.1924 15.926C38.4402 14.5611 41.8613 13.6196 45.3494 13.1389C45.09 13.1771 44.8398 13.2061 44.5804 13.245C48.1548 12.7643 51.778 12.7643 55.3622 13.2351C55.1028 13.1969 54.8526 13.1679 54.5932 13.129C58.1293 13.6097 61.5885 14.5511 64.8754 15.9351C64.645 15.8389 64.4138 15.7428 64.1834 15.6467C65.9801 16.4157 67.7195 17.2992 69.382 18.3178C70.2083 18.8274 71.0155 19.3554 71.8135 19.9222C72.1881 20.1915 72.5436 20.47 72.9182 20.7393C72.1301 20.1625 72.8892 20.7202 73.0525 20.8545C73.2539 21.0178 73.4462 21.1719 73.6384 21.3352C75.1857 22.623 76.6269 24.026 77.9628 25.5344C78.2802 25.8899 78.5877 26.2554 78.8951 26.6201C79.0683 26.8215 79.2316 27.0336 79.3949 27.235C79.462 27.3212 79.5291 27.3982 79.5871 27.4844C79.0393 26.8024 79.4139 27.2632 79.52 27.4074C80.1258 28.2146 80.7117 29.0408 81.2496 29.8961C82.4985 31.837 83.565 33.884 84.4594 36.008C84.3632 35.7776 84.2671 35.5464 84.171 35.316C85.5259 38.5547 86.4483 41.9558 86.919 45.4349C86.8809 45.1755 86.8519 44.9253 86.813 44.6659C87.0724 46.4359 87.1876 48.2327 87.1975 50.0393C87.1975 51.5477 88.5235 52.9895 90.0807 52.9225C91.6371 52.8554 92.9639 51.6538 92.9639 50.0393C92.9448 40.7948 89.9465 31.5891 84.3252 24.2288C81.6153 20.6827 78.4735 17.6171 74.8502 15.0042C71.4283 12.5536 67.6229 10.6508 63.6449 9.30573C55.5151 6.54772 46.4727 6.37448 38.2289 8.72895C30.2723 10.9963 22.9694 15.6381 17.5688 21.9133C11.5918 28.8706 7.9885 37.4612 7.21956 46.5989C6.44135 55.7274 8.74772 65.126 13.6389 72.8606C18.0686 79.8758 24.5459 85.6504 32.1272 89.0624C36.2012 90.898 40.3912 92.0608 44.8209 92.6368C49.1643 93.2036 53.5559 93.0114 57.8612 92.2431C66.1543 90.763 73.9377 86.6599 79.9725 80.7982C86.3819 74.571 90.8406 66.2589 92.3207 57.4368C92.7342 54.9863 92.9647 52.5075 92.9738 50.0181C92.9738 48.5098 91.6478 47.0679 90.0906 47.1349C88.5144 47.2219 87.1982 48.4227 87.1982 50.037L87.1973 50.0397Z" fill="#2A9D8F"/>
<path d="M87.1971 50.0402C87.1971 51.856 87.072 53.6626 86.8317 55.4601C86.8698 55.2007 86.8988 54.9505 86.9377 54.6911C86.4571 58.1602 85.5347 61.5422 84.1897 64.7709C84.2858 64.5405 84.3819 64.3094 84.4781 64.0789C83.2673 66.9522 81.73 69.6713 79.8943 72.1889C79.7882 72.343 79.673 72.4864 79.5578 72.6406C79.4907 72.7268 79.4327 72.8138 79.3656 72.9C79.654 72.5254 79.702 72.4582 79.5197 72.6986C79.2893 72.987 79.0581 73.2845 78.8185 73.5729C78.3379 74.1497 77.8481 74.7066 77.3385 75.2544C76.2818 76.3881 75.1664 77.4548 73.9945 78.4642H78.0685C77.6749 78.0026 77.2804 77.5319 76.9058 77.052C76.7807 76.8887 76.4732 76.4462 76.9829 77.158C76.9058 77.052 76.8288 76.9566 76.7525 76.8506C76.5793 76.6293 76.416 76.3989 76.2527 76.1777C75.5516 75.2072 74.8787 74.2077 74.2539 73.1892C73.005 71.1521 71.9094 69.028 70.9772 66.8278C71.0733 67.0583 71.1694 67.2894 71.2655 67.5198C69.6611 63.7052 68.5655 59.6882 68.0077 55.5853C68.0459 55.8447 68.0749 56.0949 68.1138 56.3543C67.5561 52.1742 67.5561 47.927 68.1138 43.7367C68.0756 43.9961 68.0466 44.2464 68.0077 44.5058C68.5655 40.4026 69.6603 36.3859 71.2655 32.5712C71.1694 32.8016 71.0733 33.0328 70.9772 33.2632C71.9095 31.0628 73.0051 28.9388 74.2539 26.9019C74.8688 25.9024 75.5227 24.922 76.2139 23.9806C76.3771 23.7502 76.5404 23.5289 76.7136 23.3077C76.8097 23.1825 76.9059 23.0673 76.9921 22.9422C76.4634 23.6632 76.7998 23.1917 76.915 23.0483C77.2896 22.5676 77.6841 22.0969 78.0777 21.6361H74.0037C75.1763 22.6355 76.291 23.7021 77.3385 24.8267C77.8763 25.4126 78.4051 26.0085 78.9147 26.6234C79.155 26.9118 79.3763 27.2093 79.6158 27.4977C79.068 26.8447 79.4335 27.2574 79.5487 27.4207C79.6738 27.5939 79.8081 27.7572 79.9332 27.9303C81.7589 30.4381 83.2871 33.1581 84.4979 36.0122C84.4017 35.7818 84.3056 35.5506 84.2095 35.3202C85.5645 38.5589 86.4868 41.96 86.9575 45.4391C86.9194 45.1797 86.8904 44.9295 86.8515 44.6701C87.072 46.4371 87.1872 48.2338 87.1971 50.0404C87.1971 51.5487 88.5231 52.9906 90.0803 52.9236C91.6367 52.8565 92.9635 51.6548 92.9635 50.0404C92.9536 44.9859 92.0792 39.8734 90.2924 35.1363C88.5918 30.6297 86.2084 26.5066 83.1719 22.7691C81.6346 20.8763 79.924 19.1177 78.0694 17.5324C77.5025 17.0517 76.8006 16.658 76.0322 16.6871C75.3021 16.716 74.485 16.9564 73.9951 17.5324C68.1145 24.4515 64.0395 32.8689 62.6174 41.8546C61.8773 46.5437 61.7141 51.3006 62.3099 56.0187C62.9249 60.8238 64.1547 65.4166 66.0576 69.8752C68.0275 74.4879 70.7466 78.7162 73.9953 82.5408C74.4279 83.0504 75.3694 83.4151 76.0324 83.3861C76.8297 83.348 77.4644 83.0596 78.0695 82.5408C85.142 76.4769 90.1873 67.9923 92.0511 58.8533C92.647 55.9609 92.9545 52.9916 92.9644 50.0322C92.9644 48.5239 91.6384 47.082 90.0812 47.149C88.5133 47.2253 87.1972 48.4262 87.1972 50.0406L87.1971 50.0402Z" fill="#2A9D8F"/>
<path d="M30.7808 50.0403C30.7808 52.1643 30.6366 54.2776 30.3582 56.3827C30.3963 56.1233 30.4253 55.873 30.4642 55.6136C29.9065 59.6877 28.8208 63.6756 27.2355 67.472C27.3316 67.2416 27.4278 67.0105 27.5239 66.78C26.6587 68.8269 25.66 70.816 24.5165 72.7187C23.9588 73.6411 23.3728 74.5444 22.7579 75.4287C22.4314 75.8903 22.1048 76.3511 21.7684 76.7936C21.6913 76.8996 21.6143 76.995 21.538 77.101C21.3266 77.3795 21.9606 76.5632 21.6631 76.9469C21.4708 77.1873 21.2785 77.4276 21.0863 77.6679H25.1603C24.0838 76.6875 23.0562 75.6499 22.0857 74.5544C21.6341 74.0448 21.2015 73.526 20.7788 72.998C20.6537 72.8347 20.1929 72.2099 20.7498 72.969C20.6537 72.8439 20.5575 72.7196 20.4614 72.5944C20.2402 72.306 20.0288 72.0085 19.8175 71.7102C18.1451 69.3557 16.7429 66.819 15.6083 64.1571C15.7044 64.3875 15.8006 64.6186 15.8967 64.8491C14.5318 61.6012 13.6002 58.1801 13.1196 54.692C13.1577 54.9514 13.1867 55.2017 13.2256 55.4611C12.745 51.8767 12.745 48.2445 13.2256 44.6501C13.1875 44.9095 13.1585 45.1598 13.1196 45.4192C13.6002 41.9311 14.5226 38.5199 15.8776 35.2713C15.7814 35.5017 15.6853 35.7329 15.5892 35.9633C16.7229 33.2922 18.1259 30.7455 19.8075 28.3813C20.0189 28.0837 20.2302 27.7854 20.4515 27.4879C20.5476 27.3628 20.6437 27.2384 20.7399 27.1133C20.202 27.8342 20.5957 27.2956 20.7208 27.1423C21.1625 26.5945 21.6142 26.0467 22.0857 25.518C23.0561 24.4224 24.0845 23.3848 25.1702 22.3953H21.0962C21.2694 22.6166 21.4518 22.8371 21.6249 23.0583C21.9133 23.4238 21.6249 23.0293 21.4998 22.895C21.6059 23.0011 21.6921 23.1445 21.7783 23.2605C22.1048 23.6931 22.4222 24.1257 22.7297 24.5674C23.3637 25.4707 23.9695 26.403 24.5363 27.3445C25.68 29.2473 26.6795 31.2363 27.5437 33.2832C27.4476 33.0528 27.3515 32.8216 27.2553 32.5912C28.8407 36.3869 29.9264 40.3748 30.4841 44.4496C30.4459 44.1902 30.4169 43.94 30.378 43.6806C30.6366 45.7931 30.7717 47.9165 30.7808 50.0403C30.7808 51.5486 32.1068 52.9905 33.664 52.9235C35.2204 52.8564 36.5472 51.6548 36.5472 50.0403C36.5282 41.1232 34.1355 32.2441 29.5609 24.5755C28.254 22.3751 26.7549 20.3091 25.1404 18.3294C24.7177 17.8106 23.7473 17.4551 23.1033 17.4841C22.3152 17.5222 21.6522 17.7915 21.0662 18.3294C14.4156 24.3833 9.68845 32.6085 7.93904 41.4388C6.00804 51.1831 7.43015 61.3509 12.0619 70.1419C14.3492 74.4755 17.4429 78.4442 21.0662 81.7501C22.1229 82.7206 24.1219 83.0089 25.1402 81.7501C30.6845 74.937 34.5191 66.8079 35.874 58.1017C36.2875 55.4306 36.537 52.7398 36.537 50.0398C36.537 48.5314 35.211 47.0896 33.6538 47.1566C32.0974 47.2245 30.7805 48.4253 30.7805 50.0398L30.7808 50.0403Z" fill="#2A9D8F"/>
</g>
</svg>
