<svg width="193" height="194" viewBox="0 0 193 194" fill="none" xmlns="http://www.w3.org/2000/svg">
<g opacity="0.25" clip-path="url(#clip0_3002_1131)">
<path d="M125.655 36.3655C121.969 26.2397 110.732 20.9996 100.606 24.6851C94.3161 26.9745 89.6765 32.3558 88.2313 38.7946C83.9895 38.9355 79.8294 39.7384 75.8323 41.1933L75.8097 41.2015C71.8115 42.6567 68.1063 44.7165 64.7674 47.3347C59.5217 43.3313 52.5062 42.1921 46.2162 44.4815C36.0903 48.167 30.8492 59.4047 34.5351 69.5316C36.8644 75.9312 42.3434 80.5986 48.9 81.9694C49.0297 85.0192 49.4918 88.0355 50.2801 90.9542C52.6454 100.099 58.5514 107.556 66.9095 111.953C67.8766 112.462 68.8758 112.912 69.8936 113.329L63.2575 115.744C57.8569 117.71 55.0621 123.704 57.0278 129.104L57.5151 130.443C59.4808 135.844 65.4749 138.64 70.8755 136.675L81.1682 132.929C81.8486 134.644 82.7212 136.229 83.7583 137.666L80.8978 152.938C80.2782 156.245 80.9894 159.604 82.9011 162.394C84.8111 165.185 87.6851 167.062 90.9906 167.682C93.2343 168.101 95.5004 167.91 97.5954 167.147C98.5901 166.785 99.5466 166.295 100.445 165.68C103.236 163.769 105.114 160.898 105.732 157.589L107.939 145.807C108.308 145.694 108.679 145.601 109.046 145.467L117.185 142.505C117.553 142.371 117.897 142.204 118.252 142.053L127.516 149.663C130.115 151.797 133.402 152.79 136.767 152.46C137.852 152.352 138.9 152.113 139.895 151.75C141.992 150.987 143.851 149.677 145.299 147.914C147.432 145.315 148.426 142.029 148.096 138.663C147.766 135.297 146.153 132.268 143.554 130.134L131.546 120.273C131.417 118.505 131.068 116.73 130.485 114.979L140.778 111.233C146.179 109.267 148.973 103.273 147.007 97.8709L146.521 96.5316C144.555 91.1311 138.562 88.3363 133.161 90.302L126.723 92.6454C127.232 91.6721 127.71 90.6833 128.124 89.6728C131.701 80.9325 131.431 71.4242 127.378 62.9263C126.096 60.1622 124.509 57.5473 122.647 55.1282C126.786 49.8634 127.984 42.7657 125.655 36.3661L125.655 36.3655ZM76.61 120.499L79.1448 127.463L68.8813 131.199C66.4993 132.066 63.859 130.835 62.9916 128.451L62.5039 127.111C61.6377 124.732 62.8702 122.088 65.2501 121.222L75.7826 117.389C75.9779 118.431 76.2363 119.472 76.61 120.498L76.61 120.499ZM100.008 156.516C99.675 158.292 98.6623 159.84 97.1553 160.872C95.6492 161.904 93.8416 162.287 92.0643 161.955C90.2881 161.622 88.7411 160.611 87.7103 159.104C86.6801 157.599 86.2937 155.791 86.6271 154.013L88.7525 142.661C92.527 145.362 97.1128 146.823 101.833 146.768L100.008 156.516ZM115.195 137.027L107.056 139.989C98.7072 143.028 89.4402 138.708 86.4017 130.359L82.0879 118.508C81.7971 117.709 81.5969 116.901 81.4615 116.09C88.0823 116.651 95.1269 115.688 102.02 113.179C108.838 110.698 114.794 106.958 119.483 102.342C119.88 103.028 120.234 103.749 120.515 104.52L124.828 116.372C127.866 124.721 123.544 133.988 115.195 137.027ZM139.857 134.639C141.253 135.785 142.12 137.417 142.299 139.234C142.478 141.051 141.945 142.821 140.797 144.217C139.651 145.613 138.019 146.481 136.2 146.66C134.383 146.837 132.614 146.305 131.216 145.158L123.548 138.86C127.202 135.87 129.776 131.802 130.931 127.306L139.857 134.639ZM135.156 95.7826C137.538 94.9156 140.18 96.1464 141.047 98.5285L141.534 99.8674C142.401 102.249 141.168 104.892 138.787 105.758L128.525 109.493L125.99 102.529C125.616 101.501 125.146 100.538 124.625 99.6158L135.156 95.7826ZM116.788 52.9404L114.785 54.8664L116.614 56.9593C118.835 59.5013 120.678 62.334 122.105 65.4075C125.455 72.4331 125.677 80.2672 122.73 87.4691C119.072 96.4072 110.797 103.782 100.025 107.702C89.2543 111.622 78.1727 111.294 69.6257 106.796C62.7411 103.175 57.8746 97.029 55.9183 89.4656C55.042 86.2248 54.6332 82.8699 54.7014 79.4936L54.7569 76.7149L51.9847 76.5267C46.5664 76.1581 41.8675 72.6303 40.0142 67.5383C37.4274 60.4311 41.106 52.5463 48.2131 49.9595C53.2233 48.136 58.8931 49.4154 62.6545 53.2184L64.6013 55.1842L66.6652 53.343C69.945 50.4187 73.6932 48.1764 77.8068 46.6792L77.8261 46.6721C81.9375 45.1757 86.2501 44.4841 90.6423 44.6161L93.4069 44.6998L93.6345 41.9426C94.0721 36.6098 97.5932 31.9867 102.601 30.1638C109.709 27.577 117.595 31.2537 120.182 38.3597C122.033 43.4525 120.703 49.1745 116.788 52.9402L116.788 52.9404Z" fill="#2A9D8F"/>
<path d="M96.326 62.4726C96.899 64.047 96.0882 65.7876 94.5137 66.3606C92.9392 66.9337 91.1991 66.1214 90.6261 64.5472C90.0532 62.9729 90.8643 61.2331 92.4388 60.66C94.0133 60.0869 95.7529 60.8981 96.326 62.4726Z" fill="#2A9D8F"/>
<path d="M79.483 68.6032C80.0561 70.1776 79.2441 71.9185 77.6699 72.4915C76.0956 73.0645 74.3554 72.2523 73.7824 70.678C73.2094 69.1038 74.0205 67.3639 75.595 66.7908C77.1695 66.2178 78.91 67.0287 79.483 68.6032Z" fill="#2A9D8F"/>
<path d="M50.2391 55.5411C46.2032 57.0101 44.1218 61.4737 45.5907 65.5096C47.0597 69.5455 51.5232 71.6269 55.5592 70.1579C59.5951 68.689 61.6765 64.2254 60.2075 60.1895C58.7382 56.1525 54.2761 54.0718 50.2391 55.5411ZM54.3625 66.8703C52.1451 67.6774 49.6839 66.5296 48.8768 64.3123C48.0698 62.0948 49.2175 59.6336 51.4349 58.8266C53.6523 58.0195 56.1135 59.1672 56.9206 61.3846C57.7287 63.6017 56.581 66.0629 54.3625 66.8703Z" fill="#2A9D8F"/>
<path d="M104.63 35.7443C100.594 37.2132 98.5124 41.6768 99.9813 45.7127C101.45 49.7486 105.914 51.83 109.95 50.3611C113.986 48.8921 116.067 44.4285 114.598 40.3926C113.128 36.356 108.664 34.2757 104.63 35.7443ZM108.753 47.0734C106.536 47.8805 104.075 46.7328 103.267 44.5154C102.46 42.2979 103.608 39.8367 105.825 39.0297C108.043 38.2226 110.504 39.3704 111.311 41.5877C112.117 43.8056 110.971 46.2664 108.753 47.0734Z" fill="#2A9D8F"/>
<path d="M86.4376 70.3735C76.7688 73.8927 71.7655 84.6223 75.2847 94.2911C78.8042 103.961 89.5342 108.965 99.203 105.446C108.872 101.927 113.874 91.1979 110.354 81.5269C106.836 71.8577 96.1053 66.8548 86.4376 70.3735ZM98.0068 102.16C90.15 105.019 81.4306 100.955 78.5701 93.0963C75.7105 85.2394 79.7761 76.5207 87.634 73.6606C95.4908 70.801 104.209 74.8655 107.069 82.7234C109.93 90.5798 105.864 99.3001 98.0068 102.16Z" fill="#2A9D8F"/>
<path d="M93.3904 87.6852L95.1136 88.187C97.4094 86.4173 98.4296 83.3252 97.385 80.4552C96.0934 76.9063 92.1697 75.0766 88.6208 76.3683C85.0719 77.66 83.2423 81.5836 84.534 85.1325C85.518 87.8361 88.0287 89.5311 90.7387 89.6188L91.3871 88.4925C91.7879 87.7937 92.6147 87.4587 93.3902 87.6855L93.3904 87.6852Z" fill="#2A9D8F"/>
<path d="M95.1131 88.1868L93.3899 87.685C92.6144 87.4582 91.7876 87.7932 91.3867 88.492L87.689 94.9151C87.2079 95.7515 87.4945 96.82 88.3309 97.3011C89.1687 97.7828 90.2371 97.4926 90.719 96.6584L91.7563 94.8572L93.7334 91.4254L97.8776 92.6292L100.171 93.296C100.542 93.4036 100.919 93.3831 101.257 93.2602C101.763 93.0759 102.176 92.6613 102.339 92.104C102.608 91.1767 102.076 90.2084 101.148 89.9372L95.1131 88.1868Z" fill="#2A9D8F"/>
</g>
<defs>
<clipPath id="clip0_3002_1131">
<rect width="150" height="150" fill="white" transform="translate(0 52.1738) rotate(-20)"/>
</clipPath>
</defs>
</svg>
