<svg width="213" height="213" viewBox="0 0 213 213" fill="none" xmlns="http://www.w3.org/2000/svg">
<g opacity="0.25" clip-path="url(#clip0_3002_1125)">
<path d="M120.902 142.261L142.259 120.905C143.158 120.005 143.158 118.544 142.259 117.644C141.359 116.744 139.897 116.744 138.997 117.644L117.641 139C116.741 139.9 116.741 141.362 117.641 142.261C118.541 143.161 120.002 143.162 120.902 142.261Z" fill="#2A9D8F"/>
<path d="M111.98 133.34L133.337 111.984C134.236 111.084 134.236 109.623 133.337 108.723C132.437 107.823 130.975 107.823 130.075 108.723L108.718 130.078C107.819 130.978 107.819 132.44 108.718 133.34C109.619 134.24 111.08 134.241 111.98 133.34Z" fill="#2A9D8F"/>
<path d="M103.054 124.414L124.41 103.058C125.31 102.158 125.31 100.696 124.41 99.7965C123.51 98.8966 122.049 98.8966 121.149 99.7965L99.7927 121.153C98.8928 122.052 98.8928 123.514 99.7927 124.414C100.693 125.314 102.153 125.314 103.054 124.414Z" fill="#2A9D8F"/>
<path d="M119.595 158.157L132.438 171C133.338 171.899 134.799 171.899 135.699 171L170.999 135.699C171.899 134.8 171.899 133.338 170.999 132.438L158.157 119.595L104.445 65.8827L108.506 61.822C109.406 60.9221 109.406 59.4607 108.506 58.5608L95.5615 45.6166C94.6617 44.7167 93.2002 44.7167 92.3004 45.6166L88.2396 49.6774L79.6943 41.132C78.7944 40.2321 77.333 40.2321 76.4331 41.132L67.6093 49.9558L58.7825 58.781L41.1334 76.43C40.2336 77.3299 40.2336 78.7913 41.1334 79.6912L49.6788 88.2366L45.618 92.2973C44.7182 93.1972 44.7182 94.6586 45.618 95.5585L58.5622 108.503C59.4621 109.403 60.9235 109.403 61.8234 108.503L65.8842 104.442L83.899 122.457L119.595 158.157ZM153.265 121.227L121.228 153.264L88.7905 120.827L120.828 88.7895L153.265 121.227ZM134.07 166.106L124.489 156.525L156.526 124.488L166.107 134.069L134.07 166.106ZM84.977 52.9387L79.4144 58.5014L72.4996 51.5866L78.0622 46.0239L84.977 52.9387ZM69.2385 54.8477L76.1533 61.7625L70.5892 67.3266L63.6744 60.4118L69.2385 54.8477ZM61.7629 76.1529L54.8481 69.2381L60.4122 63.674L67.327 70.5888L61.7629 76.1529ZM46.0243 78.0619L51.587 72.4992L58.5018 79.414L52.9391 84.9767L46.0243 78.0619ZM50.5106 93.9274L93.9293 50.5087L97.1403 53.7197L53.7215 97.1384L50.5106 93.9274ZM56.9835 100.4L100.402 56.9817L103.613 60.1926L60.1924 103.613L56.9814 100.402L56.9835 100.4ZM101.184 69.1444L117.568 85.5287L85.5306 117.566L69.1463 101.182L101.184 69.1444Z" fill="#2A9D8F"/>
</g>
<defs>
<clipPath id="clip0_3002_1125">
<rect width="150" height="150" fill="white" transform="translate(0 106.066) rotate(-45)"/>
</clipPath>
</defs>
</svg>
