<svg width="150" height="150" viewBox="0 0 150 150" fill="none" xmlns="http://www.w3.org/2000/svg">
<g opacity="0.25">
<mask id="mask0_3002_1117" style="mask-type:luminance" maskUnits="userSpaceOnUse" x="2" y="1" width="146" height="148">
<path d="M2.05078 1.19922H147.949V148.8H2.05078V1.19922Z" fill="white"/>
</mask>
<g mask="url(#mask0_3002_1117)">
<path d="M62.8827 59.7252C62.2785 58.6953 60.9533 58.3497 59.9232 58.9539C58.8931 59.5582 58.5476 60.8822 59.1518 61.9123L61.031 60.8434L59.1599 61.9272V61.926C59.7584 62.9594 61.0813 63.3131 62.1147 62.7145C63.1481 62.116 63.5006 60.7931 62.9021 59.7597L62.8827 59.7252ZM66.8926 40.9638C67.2726 40.9638 67.6456 40.8631 67.9741 40.672L68.0084 40.6525C69.0384 40.0483 69.384 38.7242 68.7797 37.6941C68.1766 36.663 66.8514 36.3186 65.8213 36.9217L66.8902 38.8008L65.8065 36.9297H65.8076C64.9608 37.4206 64.5487 38.4186 64.8028 39.3627C65.0569 40.308 65.9142 40.965 66.8926 40.9638ZM68.0324 64.8624C67.007 64.2513 65.6796 64.5866 65.0673 65.612C64.4562 66.6374 64.7915 67.9649 65.8169 68.576C65.8295 68.584 65.8673 68.6046 65.8798 68.6126C66.9155 69.2066 68.2362 68.8495 68.8312 67.8138C69.4251 66.7781 69.0681 65.4575 68.0324 64.8624ZM61.0162 52.757C61.0162 51.5622 60.048 50.594 58.8544 50.594C57.6608 50.594 56.6926 51.5622 56.6926 52.757V52.7844C56.6926 53.3566 56.9215 53.9048 57.3266 54.3076C57.7329 54.7104 58.2822 54.9359 58.8544 54.9325C60.0514 54.9256 61.0173 53.9528 61.0162 52.757ZM59.9244 46.6023C60.6831 47.0429 61.633 46.9845 62.3322 46.4558C63.0326 45.9259 63.3473 45.0287 63.1299 44.1773C62.9136 43.327 62.2075 42.6895 61.34 42.5602C60.4715 42.4309 59.6109 42.8337 59.1542 43.5845C59.1462 43.5971 59.1256 43.6348 59.1176 43.6474C58.526 44.6854 58.8864 46.0071 59.9244 46.6023ZM91.1449 50.5345C89.9479 50.5413 88.982 51.5141 88.9831 52.7112V52.7455V52.7798V52.7787C88.9831 53.9723 89.9513 54.9405 91.1449 54.9405C92.3397 54.9405 93.3079 53.9723 93.3079 52.7787V52.6825C93.3067 52.1103 93.0778 51.5622 92.6727 51.1593C92.2664 50.7565 91.7171 50.5311 91.1449 50.5345ZM74.9504 38.7838H75.0111H75.0088C76.1955 38.7621 77.1431 37.7859 77.1305 36.5992C77.1168 35.4113 76.1486 34.4568 74.9608 34.4603H74.955L74.9493 36.622V34.4603H74.9482C73.7546 34.4603 72.7864 35.4284 72.7864 36.6232C72.7864 37.8168 73.7546 38.785 74.9482 38.785L74.9504 38.7838ZM130.966 34.0392C120.369 22.3697 105.726 14.48 88.6233 11.2231C87.8622 11.0777 87.0795 10.9438 86.2864 10.8191C85.7062 7.21208 83.4368 4.09899 80.1809 2.44313C76.924 0.787185 73.0729 0.787185 69.816 2.44313C66.5602 4.09908 64.2909 7.21178 63.7117 10.8191C62.9186 10.9438 62.137 11.0777 61.3771 11.2231C27.129 17.7475 2.27356 47.7592 2.27356 82.5873V107.882C2.27242 107.988 2.27928 108.092 2.29416 108.195L2.2953 108.204C2.30789 108.294 2.32735 108.384 2.35138 108.472C2.35367 108.481 2.35596 108.489 2.35825 108.498C2.38457 108.59 2.41661 108.68 2.45438 108.768L17.0867 142.143C18.2197 144.686 20.2601 146.716 22.8087 147.838C25.3584 148.959 28.2333 149.091 30.8744 148.207L53.37 140.547C67.3971 135.798 82.5983 135.798 96.6268 140.547L119.122 148.207H119.121C120.262 148.596 121.458 148.794 122.662 148.793C124.831 148.794 126.953 148.166 128.771 146.985C130.59 145.805 132.028 144.123 132.91 142.143L147.543 108.768C147.581 108.679 147.613 108.587 147.639 108.495C147.641 108.488 147.642 108.482 147.643 108.475V108.476C147.67 108.385 147.689 108.293 147.702 108.2V108.197C147.717 108.092 147.724 107.985 147.724 107.878V78.2647C147.724 61.4008 141.928 46.1084 130.966 34.041L130.966 34.0392ZM74.9973 5.5263C76.8787 5.52859 78.6823 6.27818 80.0109 7.61028C81.3396 8.94238 82.0845 10.7483 82.0834 12.6297C82.0811 14.5111 81.3327 16.3147 80.0006 17.6445C78.6696 18.9743 76.8649 19.7204 74.9835 19.7193C73.1021 19.7181 71.2973 18.9697 69.9676 17.6399C68.6366 16.3089 67.8893 14.5042 67.8893 12.6228C67.8927 10.7391 68.6435 8.93547 69.9756 7.60451C71.3077 6.27355 73.1135 5.5263 74.9973 5.5263ZM128.948 140.403C128.254 141.96 127.005 143.2 125.447 143.886C123.887 144.571 122.129 144.653 120.514 144.111L98.0188 136.451C83.0865 131.396 66.9055 131.396 51.9758 136.451L29.4802 144.111C27.8643 144.653 26.1064 144.572 24.5466 143.887C22.9879 143.201 21.7394 141.96 21.0459 140.403L7.12758 108.657C33.7787 90.4175 60.9987 87.6583 74.9967 87.6583C106.881 87.6583 130.719 100.372 142.866 108.658L128.948 140.403ZM143.397 103.814C130.314 95.2623 106.427 83.3353 74.9973 83.3353C60.8296 83.3353 33.5891 86.0613 6.5979 103.806L6.59675 82.5856C6.59675 49.8317 29.9748 21.6071 62.1846 15.4694C62.7317 15.3652 63.2901 15.2668 63.8566 15.1741C64.636 18.5605 66.9123 21.4076 70.0432 22.9138C73.1745 24.4187 76.8193 24.4187 79.9503 22.9138C83.0815 21.4077 85.3576 18.5605 86.1369 15.1741C86.7034 15.2668 87.263 15.3652 87.81 15.4705C103.986 18.5514 117.801 25.9773 127.765 36.9466C137.993 48.2054 143.399 62.492 143.399 78.261L143.397 103.814ZM88.9631 46.8144C89.7276 46.8132 90.4348 46.4093 90.824 45.7501C91.2119 45.0921 91.2234 44.2773 90.8549 43.6078C90.8434 43.586 90.8171 43.5414 90.8045 43.5208V43.5196C90.4028 42.8662 89.6841 42.4748 88.9174 42.4897C88.1495 42.5057 87.448 42.928 87.0737 43.5975C86.6995 44.2669 86.7086 45.0852 87.0966 45.7466C87.4857 46.4093 88.1964 46.8155 88.9631 46.8144ZM90.0744 58.9486C89.0444 58.3443 87.7203 58.6899 87.116 59.7199C87.1091 59.7313 87.0885 59.768 87.0816 59.7794C86.704 60.45 86.7097 61.2706 87.0977 61.9355C87.4845 62.6004 88.1963 63.0101 88.9665 63.0101C89.7447 63.0112 90.4634 62.5912 90.8433 61.9115L88.9802 60.814L90.8456 61.9069H90.8467C91.451 60.8769 91.1055 59.5529 90.0744 58.9486ZM74.9841 66.7158C73.7894 66.7192 72.8246 67.6896 72.8269 68.8833C72.8303 70.078 73.8008 71.0428 74.9956 71.0405H75.0127C75.5838 71.0393 76.1319 70.8116 76.5359 70.4053C76.9388 70.0002 77.163 69.4498 77.1596 68.8776C77.1539 67.6817 76.1812 66.7146 74.9841 66.7158ZM82.0063 64.8366C81.9891 64.8469 81.9468 64.871 81.9296 64.8813V64.8824C80.9088 65.5061 80.5803 66.8359 81.1949 67.8637C81.8083 68.8902 83.1347 69.2312 84.168 68.6281C85.2012 68.025 85.5561 66.7021 84.9633 65.663C84.3705 64.6239 83.0524 64.2553 82.0063 64.8366ZM83.2377 67.0018L83.0752 66.7157L83.2514 67.0247L83.2377 67.0018ZM81.9731 40.6426C83.0099 41.2331 84.3306 40.8714 84.921 39.8335C85.5115 38.7955 85.1487 37.4748 84.1107 36.8844L84.0867 36.8707C83.5889 36.588 82.9995 36.516 82.4479 36.6693C81.8974 36.8227 81.4305 37.1889 81.1501 37.6878C80.5642 38.7315 80.9317 40.052 81.9731 40.6426Z" fill="#2A9D8F"/>
</g>
</g>
</svg>
