<svg width="150" height="150" viewBox="0 0 150 150" fill="none" xmlns="http://www.w3.org/2000/svg">
<g opacity="0.25">
<path d="M80.1982 40.1704C79.9473 38.9227 79.0405 38.1643 78.1953 38.4757L73.5001 40.2584C72.655 40.5698 72.1225 41.8633 72.3733 43.067C72.592 44.3604 73.4692 45.0731 74.3453 44.7616L79.0405 42.979C79.8856 42.6676 80.4181 41.4181 80.1982 40.1704ZM84.7057 47.5264C84.487 46.2788 83.6097 45.6101 82.7337 45.9215L72.497 49.7561C71.621 50.1133 71.0884 51.361 71.3071 52.6086C71.5579 53.8123 72.4661 54.6148 73.3421 54.2136L83.5788 50.379C84.4561 50.0675 84.9565 48.8199 84.7057 47.5264ZM84.7057 47.5264C84.487 46.2788 83.6097 45.6101 82.7337 45.9215L72.497 49.7561C71.621 50.1133 71.0884 51.361 71.3071 52.6086C71.5579 53.8123 72.4661 54.6148 73.3421 54.2136L83.5788 50.379C84.4561 50.0675 84.9565 48.8199 84.7057 47.5264ZM80.1982 40.1704C79.9473 38.9227 79.0405 38.1643 78.1953 38.4757L73.5001 40.2584C72.655 40.5698 72.1225 41.8633 72.3733 43.067C72.592 44.3604 73.4692 45.0731 74.3453 44.7616L79.0405 42.979C79.8856 42.6676 80.4181 41.4181 80.1982 40.1704ZM80.1982 40.1704C79.9473 38.9227 79.0405 38.1643 78.1953 38.4757L73.5001 40.2584C72.655 40.5698 72.1225 41.8633 72.3733 43.067C72.592 44.3604 73.4692 45.0731 74.3453 44.7616L79.0405 42.979C79.8856 42.6676 80.4181 41.4181 80.1982 40.1704ZM84.7057 47.5264C84.487 46.2788 83.6097 45.6101 82.7337 45.9215L72.497 49.7561C71.621 50.1133 71.0884 51.361 71.3071 52.6086C71.5579 53.8123 72.4661 54.6148 73.3421 54.2136L83.5788 50.379C84.4561 50.0675 84.9565 48.8199 84.7057 47.5264ZM84.7057 47.5264C84.487 46.2788 83.6097 45.6101 82.7337 45.9215L72.497 49.7561C71.621 50.1133 71.0884 51.361 71.3071 52.6086C71.5579 53.8123 72.4661 54.6148 73.3421 54.2136L83.5788 50.379C84.4561 50.0675 84.9565 48.8199 84.7057 47.5264ZM74.3453 44.7616L79.0405 42.979C79.8856 42.6676 80.4181 41.4181 80.1982 40.1704C79.9473 38.9227 79.0405 38.1643 78.1953 38.4757L73.5001 40.2584C72.655 40.5698 72.1225 41.8633 72.3733 43.067C72.592 44.3604 73.468 45.0749 74.3453 44.7616ZM137.545 10.6555C128.937 3.56732 117.637 0 106.273 0C94.9417 0 83.5781 3.5671 74.9392 10.6992L12.6153 61.925C4.5075 68.6122 0.0309545 77.3054 0 86.4915C0 86.9825 0.0630307 87.4277 0.0939028 87.8729C0.594279 98.0374 6.22981 105.796 12.3963 110.923C29.6126 125.145 57.7216 125.145 75.0331 110.923L136.448 60.4097C138.671 57.8686 148.312 51.2695 149.751 38.1188C149.876 37.0929 149.939 36.1127 149.939 35.0868V35.0428C149.94 25.9481 145.558 17.299 137.544 10.6559L137.545 10.6555ZM112.033 10.8351C114.819 8.56145 119.202 8.56145 122.05 10.8351C125.306 13.5539 125.337 18.6381 122.05 21.3129C119.264 23.6305 114.85 23.6305 112.064 21.3129C110.468 20.0194 109.592 18.147 109.592 16.097C109.56 14.045 110.437 12.1726 112.033 10.8351ZM43.1364 106.111C37.0637 111.149 27.5162 111.105 21.4436 106.111C14.8381 100.671 14.8381 91.2195 21.3805 85.8259C27.4532 80.7436 37.0007 80.7436 43.0734 85.7819C49.6789 91.1756 49.7095 100.673 43.1364 106.111ZM117.167 60.1895L72.4971 96.9706C72.2154 97.1483 71.9337 97.2381 71.6828 97.2381C71.3702 97.2381 71.0885 97.1483 70.8377 96.9266L32.7735 65.4074C32.2732 65.0062 31.9593 64.2477 31.9593 63.4453C31.9593 62.5988 32.2718 61.7964 32.7735 61.3951L77.4731 24.6582C77.9735 24.213 78.6308 24.213 79.1004 24.6582L117.197 56.1792C117.698 56.6244 117.98 57.339 117.98 58.1853C117.98 59.0318 117.698 59.7444 117.167 60.1896L117.167 60.1895ZM122.113 41.4195C119.327 43.7371 114.944 43.7371 112.127 41.4195C108.81 38.7447 108.81 33.6625 112.097 30.9417C114.883 28.6681 119.265 28.6681 122.113 30.9417C123.679 32.2792 124.586 34.1955 124.586 36.2036C124.586 38.2996 123.71 40.128 122.113 41.4195ZM82.7318 45.9228L72.4951 49.7574C71.6191 50.1147 71.0866 51.3623 71.3052 52.61C71.5561 53.8136 72.4642 54.6161 73.3402 54.2149L83.5769 50.3803C84.453 50.0688 84.9546 48.8194 84.7038 47.5278C84.4851 46.2801 83.6091 45.6114 82.7318 45.9228ZM74.3435 44.7631L79.0387 42.9805C79.8838 42.669 80.4164 41.4195 80.1964 40.1719C79.9455 38.9242 79.0387 38.1657 78.1936 38.4772L73.4984 40.2598C72.6532 40.5713 72.1207 41.8647 72.3715 43.0684C72.5902 44.3619 73.4662 45.0764 74.3435 44.7631ZM37.6558 97.6867L35.5269 95.9481L37.625 94.2094C38.4071 93.5407 38.6579 92.1135 38.2193 91.0436C37.7497 89.9297 36.7477 89.5285 35.9965 90.1972L32.2714 93.2732L28.4831 90.1972C27.7319 89.5285 26.7298 89.9297 26.2603 91.0436C25.8216 92.1575 26.0725 93.5407 26.8546 94.2094L29.0143 95.9481L26.8855 97.6867C26.1034 98.3554 25.8525 99.7827 26.2912 100.897C26.7607 102.01 27.7628 102.368 28.5449 101.699L32.2699 98.6229L36.026 101.743C36.7772 102.368 37.7792 102.01 38.2488 100.897C38.6887 99.7826 38.4379 98.3554 37.6558 97.6867ZM80.1952 40.1761C79.9444 38.9285 79.0375 38.17 78.1924 38.4814L73.4972 40.2641C72.652 40.5755 72.1195 41.869 72.3703 43.0727C72.589 44.3661 73.4663 45.0788 74.3423 44.7674L79.0375 42.9847C79.8826 42.6733 80.4152 41.4238 80.1952 40.1761ZM84.7027 47.5322C84.484 46.2845 83.6067 45.6158 82.7307 45.9272L72.494 49.7618C71.618 50.1191 71.0855 51.3667 71.3041 52.6144C71.555 53.818 72.4631 54.6205 73.3391 54.2193L83.5759 50.3847C84.4532 50.0733 84.9535 48.8256 84.7027 47.5322ZM149.971 49.7179C145.557 59.3036 138.607 63.8507 138.013 64.4754L76.6572 114.946C58.4078 129.927 28.8555 129.927 10.7636 114.946C6.94435 111.78 2.6881 106.832 0.15115 101.526C0.120278 101.436 0.0881193 101.348 0.026375 101.303L0.0572472 114.99C0.0881193 124.085 4.50284 132.734 12.4845 139.333C29.6702 153.556 57.7801 153.556 75.1212 139.333L137.416 88.0605V88.0165C145.554 81.3734 150.031 72.5902 150 63.4059L149.971 49.7179Z" fill="#2A9D8F"/>
<path d="M38.252 100.886C37.7825 102 36.7804 102.357 36.0292 101.732L32.2732 98.6124L28.5481 101.688C27.766 102.357 26.7639 102 26.2944 100.886C25.8558 99.7721 26.1066 98.3449 26.8887 97.6762L29.0176 95.9376L26.8578 94.1989C26.0757 93.5302 25.8249 92.1488 26.2635 91.0331C26.733 89.9192 27.7351 89.5179 28.4863 90.1866L32.2746 93.2627L35.9997 90.1866C36.7509 89.5179 37.753 89.9192 38.2225 91.0331C38.6611 92.103 38.4103 93.5302 37.6282 94.1989L35.5302 95.9376L37.659 97.6762C38.4399 98.3449 38.6906 99.7721 38.252 100.886Z" fill="#2A9D8F"/>
</g>
</svg>
