<svg width="193" height="193" viewBox="0 0 193 193" fill="none" xmlns="http://www.w3.org/2000/svg">
<g opacity="0.25" clip-path="url(#clip0_3002_1025)">
<mask id="mask0_3002_1025" style="mask-type:luminance" maskUnits="userSpaceOnUse" x="9" y="24" width="174" height="144">
<path d="M148.546 24.3613L182.414 117.413L43.7147 167.895L9.8467 74.8437L148.546 24.3613Z" fill="white"/>
</mask>
<g mask="url(#mask0_3002_1025)">
<path d="M90.533 150.521L162.133 114.644C183.87 103.788 158.389 33.8706 134.788 39.5145L56.8782 58.0556C44.4324 61.0351 33.8523 69.1911 27.8047 80.4701C21.7572 91.7491 20.8175 105.076 25.2239 117.092L28.3791 125.76C32.753 137.764 42.0415 147.333 53.9111 152.062C65.7806 156.791 79.1032 156.23 90.535 150.521L90.533 150.521ZM37.7828 76.8848C47.8101 65.055 58.5917 64.1082 75.0172 60.0603C71.6314 81.4177 86.7547 122.969 103.077 137.155C88.481 144.431 79.1242 150.913 63.7397 148.201C49.0971 135.662 34.6884 96.0745 37.7836 76.887L37.7828 76.8848ZM127.546 47.5837C121.046 65.6889 134.771 103.398 151.399 113.119L109.229 134.194C93.3663 123.606 76.3391 76.8238 81.6952 58.5438L127.546 47.5837ZM159.7 72.9907C166.326 91.1949 165.172 106.996 159.711 108.984C154.25 110.971 143.209 99.6095 136.583 81.4044C129.957 63.1993 131.111 47.3989 136.572 45.4113C142.033 43.4237 153.074 54.7856 159.7 72.9907ZM31.4195 87.5467C33.6545 107.847 40.7394 127.313 52.075 144.297C43.7379 139.825 37.3437 132.435 34.1154 123.542C29.4039 110.597 25.8968 101.5 31.4186 87.5442L31.4195 87.5467Z" fill="#2A9D8F"/>
</g>
<path d="M151.817 69.3166C155.631 67.9283 159.838 79.4865 156.024 80.8748C152.21 82.2631 148.003 70.7049 151.817 69.3166Z" fill="#2A9D8F"/>
<path d="M144.466 85.0799C140.652 86.4682 136.445 74.91 140.259 73.5217C144.074 72.1334 148.281 83.6916 144.466 85.0799Z" fill="#2A9D8F"/>
<path d="M155.503 97.4237C151.689 98.8119 147.482 87.2537 151.297 85.8654C155.111 84.4771 159.318 96.0354 155.503 97.4237Z" fill="#2A9D8F"/>
<path d="M144.986 68.5291C141.171 69.9174 136.965 58.3592 140.779 56.9709C144.593 55.5826 148.8 67.1408 144.986 68.5291Z" fill="#2A9D8F"/>
</g>
<defs>
<clipPath id="clip0_3002_1025">
<rect width="150" height="150" fill="white" transform="translate(140.954) rotate(70)"/>
</clipPath>
</defs>
</svg>
