<svg width="150" height="140" viewBox="0 0 150 140" fill="none" xmlns="http://www.w3.org/2000/svg">
<g opacity="0.25">
<path d="M141.036 67.6997C140.815 61.7344 140.062 57.4223 138.083 54.5578C134.91 49.9564 131.013 49.2268 126.762 49.433C126.487 48.179 126.132 46.9411 125.7 45.7265C124.224 42.3236 123.043 40.6157 117.376 41.249C114.085 41.6068 113.037 45.1198 113.096 47.9439C113.214 54.0877 113.184 58.813 113.376 64.1855L35.2358 64.1866C35.5757 59.2816 36.1662 51.4578 36.3276 48.1508C36.4604 45.0927 35.5895 43.2054 33.2719 41.8691C29.8914 39.9134 25.5083 40.8085 23.9588 43.7982C23.0398 45.5648 22.3371 47.4223 21.8634 49.3353C18.0697 49.7209 13.7894 50.6298 12.1954 54.8456C10.7283 59.3125 9.94776 63.9513 9.87795 68.6222C9.67081 73.9671 9.4053 78.2652 11.1471 82.7704C12.4758 86.1873 15.3392 89.3692 19.2805 89.7548C19.6055 92.3856 20.402 94.9479 22.557 96.5191V96.518C24.1615 97.599 26.2259 97.8927 28.1041 97.3095C29.9809 96.7252 31.4434 95.3335 32.0328 93.57C33.2436 88.632 33.9703 83.6013 34.2026 78.5405H114.365C114.36 82.6975 114.755 86.8472 115.546 90.9392C116.417 94.4523 119.22 98.3231 123.634 97.5936C127.561 96.9602 128.785 93.0616 129.228 89.7547C136.003 89.4374 138.276 87.2478 139.797 83.3759C141.553 78.94 141.228 72.3829 141.036 67.6992L141.036 67.6997ZM14.3208 80.5245C13.4316 76.9517 13.1523 73.2688 13.4945 69.6138C13.6822 65.7878 14.3105 61.9917 15.3691 58.2907C15.6117 56.9951 16.3384 55.8213 17.4187 54.9775C18.499 54.1326 19.8632 53.6723 21.273 53.6755C21.1849 54.4061 21.1105 55.1494 21.0224 55.8662C20.3872 60.6322 18.9109 79.7118 19.0586 84.4923V85.553C17.8615 85.1834 16.7915 84.5222 15.9595 83.6389C15.1264 82.7545 14.5611 81.68 14.3207 80.5242L14.3208 80.5245ZM28.9338 90.9397C28.5939 93.1304 26.7788 93.9978 25.5096 93.4882C24.2404 92.9787 23.8707 90.3062 23.7529 89.1485H23.7517C23.4153 85.5575 23.3214 81.9505 23.4714 78.3488C23.6487 70.951 24.047 64.2282 24.9477 56.8722V56.8712C25.0964 53.5385 25.7018 50.2381 26.7489 47.0487C27.1907 45.4818 28.8467 44.4927 30.5564 44.7758C32.844 45.2308 32.5339 47.242 32.5041 49.8866C32.4011 55.8659 29.4646 87.5635 28.9326 90.9405L28.9338 90.9397ZM34.5277 74.5047C34.6753 72.4518 34.823 70.3723 34.9557 68.3333H113.671C113.803 70.4001 113.951 72.4657 114.084 74.5047H34.5277ZM125.626 87.1928C125.626 90.1686 125.183 93.8472 121.715 93.2822C118.571 92.7728 118.762 85.9399 118.571 83.3775C118.306 79.6435 116.932 56.2238 116.962 50.7127C116.962 48.6459 116.962 45.6839 119.81 45.7812C122.881 45.8913 123.205 49.2249 123.412 52.9858C123.825 60.3281 124.726 68.3185 125.051 75.6748C125.184 79.2574 125.582 83.5416 125.626 87.1923L125.626 87.1928ZM137.139 79.6435C136.401 82.6469 135.279 86.2284 129.523 85.7329C129.715 81.6828 127.575 53.47 127.619 53.47C131.235 52.3816 134.777 55.3574 135.53 58.3331C136.726 62.9474 138.468 74.5056 137.139 79.6443L137.139 79.6435Z" fill="#2A9D8F"/>
</g>
</svg>
