<svg width="150" height="150" viewBox="0 0 150 150" fill="none" xmlns="http://www.w3.org/2000/svg">
<g opacity="0.25">
<path d="M71.3176 22.7266H31.3654C20.9592 22.7266 12.0477 30.156 10.1847 40.402L1.95635 85.6539C1.46996 88.3536 2.19667 91.1093 3.95562 93.2128C5.70772 95.3151 8.29068 96.5269 11.0337 96.5269H25.1912C29.5696 96.5269 33.377 93.4082 34.2137 89.2325L39.914 65.7769H71.3144C79.7956 65.7769 86.6894 58.876 86.6894 50.4019L86.6906 38.1019C86.6906 29.6207 79.7955 22.7269 71.3156 22.7269L71.3176 22.7266ZM71.3176 53.4766H46.7173C45.0201 53.4766 43.6423 52.0987 43.6423 50.4016C43.6423 48.7044 45.0201 47.3266 46.7173 47.3266H71.3176C73.0147 47.3266 74.3926 48.7044 74.3926 50.4016C74.3926 52.0987 73.0204 53.4766 71.3176 53.4766ZM71.3176 41.1766H46.7173C45.0201 41.1766 43.6423 39.7987 43.6423 38.1016C43.6423 36.4044 45.0201 35.0266 46.7173 35.0266H71.3176C73.0147 35.0266 74.3926 36.4044 74.3926 38.1016C74.3926 39.7987 73.0204 41.1766 71.3176 41.1766Z" fill="#2A9D8F"/>
<path d="M19.0406 93.452C19.0406 91.7548 17.6628 90.377 15.9656 90.377C14.2685 90.377 12.8906 91.7548 12.8906 93.452V96.527H19.0406V93.452Z" fill="#2A9D8F"/>
<path d="M59.0159 121.126H34.4156C25.9345 121.126 19.0406 114.225 19.0406 105.751V102.676H12.8906V105.751C12.8906 117.621 22.546 127.276 34.4159 127.276H59.0162C60.7134 127.276 62.0912 125.898 62.0912 124.201C62.0912 122.504 60.7191 121.126 59.0162 121.126L59.0159 121.126Z" fill="#2A9D8F"/>
<path d="M49.7906 62.702C49.7906 61.0048 48.4128 59.627 46.7156 59.627C45.0185 59.627 43.6406 61.0048 43.6406 62.702V65.777H49.7906V62.702Z" fill="#2A9D8F"/>
<path d="M44.7483 71.9258L43.8076 75.8064C44.1647 77.1042 45.3079 78.0758 46.7224 78.0758C48.4196 78.0758 49.7974 76.6979 49.7974 75.0008V71.9258L44.7483 71.9258Z" fill="#2A9D8F"/>
<path d="M86.6922 38.1011C86.6922 35.8809 86.1944 33.7774 85.3452 31.8652C82.5529 33.4514 80.542 36.3983 80.542 39.8234V48.6676C80.542 52.1305 82.4795 55.1188 85.3086 56.699C86.1818 54.7684 86.6922 52.6467 86.6922 50.3955V38.1011Z" fill="#2A9D8F"/>
<path d="M104.297 33.9493L91.9966 30.8743C91.8249 30.8308 91.6521 30.8434 91.4805 30.8125C92.3102 33.1013 92.84 35.5299 92.84 38.1013V50.4013C92.84 52.9716 92.3113 55.4011 91.4805 57.6889C91.6521 57.658 91.8249 57.6706 91.9966 57.6271L104.297 54.5521C108.411 53.5255 111.289 49.8417 111.289 45.6039V42.9043C111.289 38.6609 108.411 34.9767 104.297 33.9493Z" fill="#2A9D8F"/>
<path d="M145.117 41.1758H117.441V47.3258H145.117C146.814 47.3258 148.192 45.9479 148.192 44.2508C148.192 42.5536 146.821 41.1758 145.117 41.1758Z" fill="#2A9D8F"/>
<path d="M111.291 41.1758H108.216C106.518 41.1758 105.141 42.5536 105.141 44.2508C105.141 45.9479 106.518 47.3258 108.216 47.3258H111.291V41.1758Z" fill="#2A9D8F"/>
</g>
</svg>
