<svg width="100" height="85" viewBox="0 0 100 85" fill="none" xmlns="http://www.w3.org/2000/svg">
<g opacity="0.25">
<path d="M92.261 63.7408C91.3312 63.7408 90.5758 62.957 90.5758 61.9922V45.5952C90.5758 22.3794 72.3725 3.49858 49.998 3.49858C27.6235 3.49858 9.42023 22.3854 9.42023 45.5952V61.9922C9.42023 62.957 8.66485 63.7408 7.73502 63.7408C6.80431 63.7408 6.0498 62.957 6.0498 61.9922V45.5952C6.0498 20.454 25.7619 0 49.9905 0C74.2206 0 93.9333 20.4533 93.9333 45.5952V61.9922C93.9403 62.957 93.1847 63.7408 92.261 63.7408Z" fill="#2A9D8F"/>
<path d="M13.7931 76.5623H1.68608C0.755373 76.5623 0 75.7794 0 74.8137V62.2505C0 61.2848 0.755373 60.502 1.68608 60.502H13.7931C14.7238 60.502 15.4783 61.2848 15.4783 62.2505V74.8137C15.4783 75.7794 14.7238 76.5623 13.7931 76.5623ZM3.37131 73.0716H12.1148V63.9993H3.37131V73.0716Z" fill="#2A9D8F"/>
<path d="M98.3145 76.5623H86.2057C85.2759 76.5623 84.5205 75.7794 84.5205 74.8137V62.2505C84.5205 61.2848 85.2759 60.502 86.2057 60.502H98.3145C99.2444 60.502 99.9997 61.2848 99.9997 62.2505V74.8137C99.9927 75.7794 99.2374 76.5623 98.3145 76.5623ZM87.884 73.0716H96.6284V63.9993H87.884V73.0716Z" fill="#2A9D8F"/>
<path d="M28.977 84.9993H13.7945C12.8638 84.9993 12.1084 84.2164 12.1084 83.2507V53.8208C12.1084 52.856 12.8638 52.0723 13.7945 52.0723H28.977C29.9068 52.0723 30.6622 52.856 30.6622 53.8208V83.2507C30.6622 84.2164 29.9068 84.9993 28.977 84.9993ZM15.4797 81.5021H27.298V55.5708H15.4797V81.5021Z" fill="#2A9D8F"/>
<path d="M86.2075 84.9993H71.0249C70.0942 84.9993 69.3389 84.2164 69.3389 83.2507V53.8208C69.3389 52.856 70.0942 52.0723 71.0249 52.0723H86.2075C87.1373 52.0723 87.8927 52.856 87.8927 53.8208V83.2507C87.8857 84.2164 87.1312 84.9993 86.2075 84.9993ZM72.703 81.5021H84.5222V55.5708H72.703V81.5021Z" fill="#2A9D8F"/>
</g>
</svg>
