<svg width="184" height="184" viewBox="0 0 184 184" fill="none" xmlns="http://www.w3.org/2000/svg">
<g opacity="0.25" clip-path="url(#clip0_3002_945)">
<path d="M87.6778 44.741C87.0774 44.5801 86.4377 44.6644 85.8994 44.9752C85.361 45.286 84.9682 45.7979 84.8073 46.3983L82.2111 56.0878C69.3464 56.7366 57.0193 61.4503 47.0038 69.5505C36.9884 77.6507 29.8012 88.7196 26.4766 101.164L19.6668 99.3395C19.0664 99.1786 18.4266 99.2628 17.8883 99.5736C17.35 99.8844 16.9572 100.396 16.7963 100.997L13.1567 114.58C12.9958 115.181 13.08 115.82 13.3908 116.359C13.7016 116.897 14.2135 117.29 14.8139 117.451L146.119 152.634C146.72 152.795 147.36 152.71 147.898 152.4C148.436 152.089 148.829 151.577 148.99 150.977L152.63 137.393C152.79 136.793 152.706 136.153 152.395 135.615C152.085 135.076 151.573 134.684 150.972 134.523L144.154 132.696C147.497 120.257 146.809 107.078 142.187 95.0549C137.566 83.032 129.249 72.7853 118.434 65.7889L121.03 56.104C121.19 55.5036 121.106 54.8639 120.795 54.3255C120.485 53.7872 119.973 53.3944 119.372 53.2335L87.6778 44.741ZM88.7285 49.8754L100.048 52.9084L93.9819 75.5473L98.5097 76.7605L104.576 54.1217L115.895 57.1547L108.009 86.5852C107.848 87.1857 107.933 87.8254 108.243 88.3637C108.554 88.9021 109.066 89.2949 109.667 89.4557C110.267 89.6166 110.907 89.5324 111.445 89.2216C111.983 88.9108 112.376 88.3989 112.537 87.7985L117.153 70.5703C126.749 77.143 134.066 86.534 138.094 97.4453C142.121 108.357 142.66 120.249 139.636 131.48L136.258 130.575C135.658 130.414 135.018 130.499 134.48 130.809C133.941 131.12 133.549 131.632 133.388 132.233C133.227 132.833 133.311 133.473 133.622 134.011C133.933 134.549 134.445 134.942 135.045 135.103L147.496 138.439L145.07 147.495L18.2923 113.525L20.7187 104.469L33.1701 107.806C33.7705 107.967 34.4102 107.882 34.9486 107.572C35.4869 107.261 35.8797 106.749 36.0406 106.148C36.2014 105.548 36.1172 104.908 35.8064 104.37C35.4956 103.832 34.9837 103.439 34.3833 103.278L30.9965 102.37C33.9926 91.1299 40.407 81.0979 49.3527 73.6616C58.2985 66.2252 69.3336 61.7518 80.9323 60.86L76.3148 78.0927C76.154 78.6932 76.2382 79.3329 76.549 79.8712C76.8598 80.4096 77.3717 80.8024 77.9721 80.9632C78.5725 81.1241 79.2123 81.0399 79.7506 80.7291C80.2889 80.4183 80.6817 79.9064 80.8426 79.306L88.7285 49.8754ZM92.6061 89.7373C89.6044 88.9432 86.4104 89.3689 83.7214 90.9214C81.0325 92.4739 79.0668 95.0271 78.2536 98.0237C76.5855 104.249 80.3144 110.708 86.5401 112.376C92.7658 114.044 99.2244 110.315 100.893 104.09C102.561 97.8641 98.8318 91.4054 92.6061 89.7373ZM91.3929 94.265C95.1691 95.2769 97.3766 99.1004 96.3648 102.877C95.3529 106.653 91.5294 108.86 87.7533 107.848C83.9771 106.837 81.7696 103.013 82.7814 99.2369C83.7932 95.4607 87.6167 93.2532 91.3929 94.265ZM53.406 108.351C52.7975 108.22 52.162 108.336 51.6392 108.674C51.1165 109.012 50.7492 109.543 50.6184 110.152C50.4875 110.76 50.6037 111.396 50.9414 111.918C51.2792 112.441 51.8107 112.808 52.4192 112.939L115.808 129.924C116.408 130.085 117.048 130.001 117.587 129.69C118.125 129.379 118.518 128.867 118.679 128.267C118.839 127.667 118.755 127.027 118.444 126.488C118.134 125.95 117.622 125.557 117.021 125.396L53.6324 108.411C53.558 108.387 53.4824 108.367 53.406 108.351Z" fill="#2A9D8F"/>
</g>
<defs>
<clipPath id="clip0_3002_945">
<rect width="150" height="150" fill="white" transform="translate(38.9668 0.144531) rotate(15)"/>
</clipPath>
</defs>
</svg>
