<svg width="75" height="75" viewBox="0 0 75 75" fill="none" xmlns="http://www.w3.org/2000/svg">
<g opacity="0.25">
<path d="M53.9062 2.34375C43.568 2.34375 35.1562 10.7555 35.1562 21.0938C35.1562 27.9047 38.7117 33.9961 44.5312 37.3266V39.8438C44.5312 40.4648 44.7773 41.0625 45.218 41.5008L51.0539 47.3367L49.4648 50.5125C49.1344 51.1734 49.1344 51.9492 49.4648 52.6102L51.2859 56.25L49.4672 59.8898C49.3031 60.2133 49.2188 60.5742 49.2188 60.9375V65.625C49.2188 66.2461 49.4648 66.8438 49.9055 67.282L54.593 71.9695C55.05 72.4266 55.65 72.6562 56.25 72.6562C56.85 72.6562 57.45 72.4266 57.907 71.9695L62.5945 67.282C63.0352 66.8438 63.2812 66.2461 63.2812 65.625V37.3266C69.1008 33.9961 72.6562 27.9047 72.6562 21.0938C72.6562 10.7555 64.2445 2.34375 53.9062 2.34375ZM53.9883 22.2656C51.4055 22.3125 49.2656 20.2453 49.2188 17.6602C49.1742 15.0773 51.2414 12.9375 53.8242 12.8906C56.407 12.8438 58.5469 14.9109 58.5938 17.4961C58.6383 20.0789 56.5711 22.2188 53.9883 22.2656Z" fill="#2A9D8F"/>
<path d="M42.1875 39.8436C42.1875 40.4061 42.2812 40.992 42.4922 41.5076C41.8828 41.6717 41.25 41.8123 40.6172 41.9295C40.3828 42.0233 40.1016 42.0701 39.8437 42.0701C38.2734 42.2576 36.0469 42.2108 34.1484 41.8123L13.3828 62.6014C12.9375 63.0232 12.3516 63.2811 11.7187 63.2811H4.6875C3.39844 63.2811 2.34375 62.2264 2.34375 60.9373V53.9061C2.34375 53.2733 2.60156 52.6873 3.02344 52.242L5.36719 49.8983C5.8125 49.4764 6.39844 49.2186 7.03125 49.2186H10.0312L11.8359 43.7811C12.0703 43.1014 12.6328 42.5389 13.3125 42.3045L18.3047 40.6404L16.4766 33.3748C16.2656 32.5779 16.5 31.7342 17.0859 31.1483L19.7812 28.4764C17.9766 22.0076 19.7812 14.9764 24.5625 10.1717C27.2344 7.49981 30.6094 5.71856 34.3125 5.01544C34.5 4.94513 34.6875 4.89825 34.8281 4.87481C36.6797 4.59356 38.5547 4.617 40.3828 4.92169C35.7656 8.78888 32.8125 14.6014 32.8125 21.0936C32.8125 28.2889 36.2812 34.7342 42.1875 38.6248V39.8436Z" fill="#2A9D8F"/>
</g>
</svg>
