<svg width="175" height="175" viewBox="0 0 175 175" fill="none" xmlns="http://www.w3.org/2000/svg">
<g opacity="0.25">
<path d="M153.761 58.4477H130.308V44.2925C130.308 42.8639 129.155 41.709 127.725 41.709L47.2041 41.7103C45.7755 41.7103 44.6206 42.8639 44.6206 44.2938V58.449L21.1675 58.4477C19.7389 58.4477 18.584 59.6012 18.584 61.0312V133.096C18.584 134.524 19.7376 135.679 21.1675 135.679H153.761C155.189 135.679 156.344 134.526 156.344 133.096V61.0312C156.344 59.6026 155.191 58.4477 153.761 58.4477H153.761ZM49.7866 46.8761H125.143V58.4477H49.7866V46.8761ZM151.177 130.514H23.7485V63.6139H151.177V130.514ZM70.7421 104.632H80.5408V114.431C80.5408 115.859 81.6943 117.014 83.1243 117.014H93.0777C94.5063 117.014 95.6612 115.861 95.6612 114.431V104.632H105.46C106.888 104.632 108.043 103.478 108.043 102.048V92.095C108.043 90.6664 106.89 89.5115 105.46 89.5115H95.6612V79.7128C95.6612 78.2842 94.5077 77.1293 93.0777 77.1293H83.1243C81.6956 77.1293 80.5408 78.2829 80.5408 79.7128V89.5115H70.7421C69.3135 89.5115 68.1586 90.665 68.1586 92.095V102.048C68.16 103.461 69.3309 104.632 70.7421 104.632ZM73.3256 94.661H83.1243C84.5529 94.661 85.7078 93.5075 85.7078 92.0775V82.2789H90.4957V92.0775C90.4957 93.5061 91.6492 94.661 93.0792 94.661H102.878V99.4489H93.0792C91.6506 99.4489 90.4957 100.602 90.4957 102.032V111.831H85.7078V102.032C85.7078 100.604 84.5542 99.4489 83.1243 99.4489H73.3256V94.661Z" fill="#2A9D8F"/>
</g>
</svg>
