<svg width="110" height="150" viewBox="0 0 110 150" fill="none" xmlns="http://www.w3.org/2000/svg">
<g opacity="0.25">
<path d="M107.84 12.2656H100.559V1.96302C100.554 1.39599 100.278 0.857909 99.8035 0.489033C99.3362 0.115579 98.7148 -0.0566562 98.0967 0.0165104C98.0967 0.0165104 1.61834 12.3436 1.53259 12.383C0.63478 12.63 0.0150506 13.3769 0 14.2305V148.034C0 148.555 0.226114 149.055 0.631477 149.424C1.03682 149.793 1.58623 150 2.15905 150H107.839C108.412 150 108.962 149.793 109.367 149.424C109.772 149.055 110 148.555 110 148.034V14.2305C110 13.7092 109.772 13.2092 109.367 12.8403C108.962 12.473 108.412 12.2656 107.839 12.2656H107.84ZM96.2388 4.22513V12.2656H33.1377L96.2388 4.22513ZM105.679 146.071L4.31682 146.069V16.1956H105.679V146.071Z" fill="#2A9D8F"/>
<path d="M34.3277 35.8351H75.6762C76.8688 35.8351 77.8353 34.954 77.8353 33.8687C77.8353 32.7834 76.8688 31.9023 75.6762 31.9023H34.3277C33.1335 31.9023 32.167 32.7834 32.167 33.8687C32.167 34.954 33.1335 35.8351 34.3277 35.8351Z" fill="#2A9D8F"/>
<path d="M54.9973 111.961C63.9736 111.961 72.5829 108.716 78.9308 102.941C85.2791 97.1649 88.8466 89.33 88.8483 81.1615C88.85 72.9911 85.2873 65.1562 78.9411 59.3778C72.5962 53.599 63.9886 50.3508 55.0106 50.3477C46.0342 50.3446 37.4232 53.5853 31.0719 59.3594C24.722 65.1335 21.151 72.9653 21.1445 81.1358C21.1563 89.3047 24.7256 97.1364 31.0702 102.915C37.4168 108.692 46.0192 111.946 54.9973 111.962V111.961ZM28.3165 92.6941H39.1182C40.0495 97.6144 42.103 102.302 45.1449 106.457C37.7598 104.069 31.7117 99.1223 28.3165 92.6941ZM25.4657 81.213C25.4674 78.6583 25.8677 76.1171 26.6533 73.6646H38.4704C37.7786 78.6766 37.7786 83.7495 38.4704 88.7627H26.6751C25.8661 86.2872 25.4591 83.7171 25.4658 81.135L25.4657 81.213ZM84.5276 81.213C84.5243 83.7693 84.1173 86.3117 83.3166 88.763H71.5214C72.2132 83.7495 72.2132 78.6766 71.5214 73.665H83.3385C84.1174 76.0917 84.516 78.6067 84.5277 81.1358L84.5276 81.213ZM67.7211 81.213H67.7194C67.7161 83.7388 67.5285 86.2602 67.1583 88.763H57.1554V73.5854H67.1583C67.5268 76.0883 67.7144 78.6095 67.7194 81.1354L67.7211 81.213ZM52.8356 107.558C49.0987 105.985 45.4475 100.52 43.5681 92.6165H52.8356V107.558ZM57.1569 107.558L57.1553 92.6941H66.4228C64.5434 100.558 60.8935 105.985 57.1553 107.558H57.1569ZM57.1569 69.6543L57.1553 54.7314C60.8921 56.2847 64.5434 61.7492 66.4228 69.6527L57.1569 69.6543ZM52.8356 54.733V69.6543L43.5681 69.6527C45.4474 61.7507 49.0986 56.2845 52.8356 54.7314V54.733ZM52.8356 73.5869V88.763H42.8327C42.084 83.7526 42.084 78.6739 42.8327 73.665L52.8356 73.5869ZM64.8032 106.457C67.865 102.309 69.9251 97.6191 70.8513 92.6937H81.653C78.2545 99.1277 72.1981 104.076 64.8032 106.457ZM77.1177 63.3452V63.3436C78.9585 65.2444 80.5011 67.3676 81.6972 69.6543H70.8955C69.9575 64.734 67.8972 60.0451 64.8473 55.8927C69.5606 57.3988 73.7817 59.9612 77.1181 63.3436L77.1177 63.3452ZM32.8748 63.3452V63.3436C36.2013 59.9292 40.4323 57.344 45.1658 55.835C42.1156 59.9873 40.0554 64.6743 39.1176 69.5966H28.3159C29.5119 67.3314 31.0461 65.2265 32.8753 63.344L32.8748 63.3452Z" fill="#2A9D8F"/>
<path d="M75.6723 126.436H34.3238C33.1295 126.436 32.1631 127.315 32.1631 128.4C32.1631 129.487 33.1295 130.367 34.3238 130.367H75.6723C76.8648 130.367 77.8313 129.487 77.8313 128.4C77.8313 127.315 76.8649 126.436 75.6723 126.436Z" fill="#2A9D8F"/>
</g>
</svg>
