<svg width="205" height="205" viewBox="0 0 205 205" fill="none" xmlns="http://www.w3.org/2000/svg">
<g opacity="0.25">
<path d="M80.5441 118.695C84.5136 120.986 88.7804 122.547 93.1664 123.321C100.282 128.366 105.143 138.415 106.147 140.616C105.99 140.831 105.816 141.032 105.681 141.266C104.689 142.982 104.428 144.984 104.944 146.9L112.167 173.692C112.699 175.668 113.986 177.247 115.635 178.199C117.284 179.149 119.294 179.476 121.272 178.949L124.425 178.11C126.344 177.599 127.947 176.372 128.939 174.655C129.93 172.939 130.192 170.937 129.674 169.021L122.452 142.228C121.829 139.915 120.16 138.176 118.1 137.32C117.75 134.614 116.747 124.361 120.227 116.697C124.039 113.756 127.324 109.998 129.886 105.562C135.926 95.0988 137.442 81.8697 134.043 69.2649C127.589 45.3192 105.435 30.339 84.6555 35.8734C75.5816 38.2898 67.8307 44.3904 62.8309 53.0504C56.7902 63.5132 55.2741 76.7433 58.6722 89.3465C62.2018 102.438 70.4225 112.848 80.5474 118.694L80.5441 118.695ZM119.602 142.996L126.823 169.788C127.134 170.942 126.977 172.146 126.381 173.178C125.785 174.211 124.821 174.949 123.665 175.256L120.512 176.096C118.123 176.73 115.659 175.306 115.016 172.923L107.795 146.132C107.484 144.978 107.64 143.774 108.238 142.74C108.834 141.708 109.798 140.97 110.952 140.663L114.106 139.824C115.301 139.505 116.514 139.702 117.509 140.277C118.504 140.851 119.279 141.804 119.602 142.996ZM115.054 136.741C114.488 136.756 113.917 136.819 113.346 136.97L110.191 137.81C109.566 137.977 108.992 138.244 108.445 138.555C107.083 135.692 103.533 128.941 98.3359 123.841C101.569 123.929 104.831 123.598 108.061 122.739C110.889 121.985 113.59 120.874 116.118 119.439C114.233 126.235 114.692 133.486 115.054 136.741ZM85.4133 38.7255C94.0549 36.4242 102.964 37.9998 110.701 42.467C120.164 47.9304 127.873 57.7199 131.193 70.0325C134.387 81.8855 132.98 94.297 127.33 104.084C122.725 112.06 115.611 117.673 107.302 119.886C88.0918 125.002 67.5552 110.958 61.5213 88.5792C58.3268 76.7262 59.7355 64.3143 65.3868 54.5259C69.991 46.5489 77.1037 40.9377 85.4145 38.7241L85.4133 38.7255Z" fill="#2A9D8F"/>
<path d="M83.7025 110.71C90.4083 114.582 98.1617 115.945 105.69 113.94C112.943 112.007 119.138 107.135 123.132 100.216C127.949 91.8736 129.158 81.329 126.452 71.2854C121.305 52.1894 103.619 40.2504 87.0281 44.6706C79.7745 46.6025 73.5795 51.4777 69.5855 58.3956C64.7702 66.7382 63.5607 77.2812 66.2683 87.3244C69.0793 97.7561 75.6325 106.051 83.7037 110.711L83.7025 110.71ZM72.1388 59.87C72.485 59.2704 72.8651 58.7036 73.2471 58.138L75.3422 65.9097L68.9663 67.6081C69.6916 64.8778 70.7517 62.2725 72.1388 59.87ZM76.1103 68.761L79.5939 81.6835L68.6462 84.5985C67.6562 79.978 67.5404 75.2942 68.2734 70.8476L76.1103 68.761ZM102.593 48.1853L105.226 57.9526L93.1364 61.1728L89.3678 47.19C93.8313 46.314 98.3434 46.7043 102.593 48.1853ZM105.994 60.8022L109.478 73.7247L97.3878 76.9448L93.9042 64.0224L105.994 60.8022ZM123.02 70.1179L112.33 72.9653L108.847 60.0428L116.416 58.0264C119.244 61.4525 121.525 65.5377 123.02 70.1179ZM90.4231 110.516L87.4659 99.5454L99.5556 96.3253L103.607 111.356C99.164 112.279 94.6677 111.941 90.4229 110.516L90.4231 110.516ZM86.698 96.6958L83.2144 83.7733L95.3042 80.5532L98.7878 93.4757L86.698 96.6958ZM69.3996 87.4525L80.3619 84.5328L83.8455 97.4553L75.5958 99.6523C72.8993 96.1582 70.7596 92.0462 69.3996 87.4525ZM98.1573 79.7939L110.247 76.5738L113.731 89.4963L101.641 92.7164L98.1573 79.7939ZM94.5367 77.7036L82.447 80.9237L78.9634 68.0012L91.0531 64.7811L94.5367 77.7036ZM77.7085 102.145L84.6139 100.306L86.9806 109.085C83.5872 107.423 80.4407 105.073 77.7083 102.145L77.7085 102.145ZM106.459 110.593L102.409 95.5666L114.499 92.3465L117.417 103.17C114.41 106.633 110.654 109.169 106.459 110.593ZM120.575 98.7391C120.29 99.2327 119.972 99.694 119.664 100.165L117.351 91.5864L124.034 89.8065C123.315 92.9709 122.163 95.9888 120.575 98.7391ZM124.604 86.6003L116.582 88.7373L113.098 75.8148L123.82 72.9586C124.933 77.5194 125.183 82.1622 124.604 86.6003ZM107.544 50.4464C109.921 51.8185 112.153 53.5435 114.18 55.5658L108.079 57.1905L106.051 49.6688C106.552 49.9225 107.056 50.1643 107.544 50.4464ZM86.5113 47.9324L90.2841 61.9308L78.1943 65.1509L75.5558 55.3631C75.5429 55.3147 75.5085 55.2803 75.4918 55.2337C78.5276 51.8089 82.3006 49.3093 86.5115 47.932L86.5113 47.9324Z" fill="#2A9D8F"/>
</g>
</svg>
