<svg width="150" height="150" viewBox="0 0 150 150" fill="none" xmlns="http://www.w3.org/2000/svg">
<g opacity="0.25">
<path d="M113.818 20.8303C108.062 27.9154 93.0063 33.967 77.5079 37.2137C69.8324 38.8376 62.3055 39.5757 55.5159 39.5757C45.4794 39.5757 38.3946 37.8042 34.8514 34.5575L30.1284 86.5126H119.575L113.818 20.8303ZM55.5177 36.6231C61.8646 36.6231 69.0974 35.8849 76.7717 34.261C98.1734 29.8334 114.559 20.829 113.082 14.0394C113.082 13.7442 112.935 13.5965 112.787 13.3013C112.787 13.3013 112.787 13.1536 112.639 13.1536C112.492 13.006 112.492 12.8584 112.344 12.7108L112.196 12.5631C112.049 12.4155 111.901 12.2679 111.754 12.1202L111.606 11.9726C111.458 11.825 111.163 11.5297 111.015 11.3821L110.868 11.2345C110.72 11.0868 110.425 10.9392 110.277 10.7916C110.13 10.7916 110.13 10.644 109.982 10.644C109.834 10.4963 109.539 10.3487 109.392 10.3487C109.244 10.3487 109.244 10.2011 109.096 10.2011C108.801 10.0535 108.506 9.90583 108.211 9.7582H108.063C107.768 9.61058 107.325 9.46295 106.882 9.31532C106.734 9.31532 106.587 9.16769 106.439 9.16769C106.144 9.02006 105.849 9.02007 105.553 8.87244C105.406 8.87244 105.258 8.72481 105.11 8.72481C105.113 8.57947 104.817 8.57947 104.522 8.43184C104.375 8.43184 104.227 8.43184 104.079 8.28421C103.636 8.13658 103.194 8.13658 102.603 7.98896H102.308C101.865 7.98896 101.57 7.84133 101.127 7.84133H100.536C100.241 7.84133 99.7981 7.6937 99.3552 7.6937H98.7647C98.3218 7.6937 97.7313 7.54607 97.2884 7.54607H96.9931C96.4026 7.54607 95.8121 7.54607 95.2216 7.39844H94.6311H93.3024H92.7119H90.7927H90.6451C89.9069 7.39844 89.1688 7.39844 88.4306 7.54607H87.8401C87.2496 7.54607 86.5115 7.6937 85.921 7.6937H85.4781C84.7399 7.6937 83.8541 7.84133 83.116 7.98895H82.5255C81.935 7.98895 81.1968 8.13658 80.6063 8.28421C80.4587 8.28421 80.1634 8.2842 80.0158 8.43183C79.1301 8.57946 78.3919 8.72709 77.5061 8.72709H77.0633C76.3251 8.87472 75.587 9.02234 74.8488 9.02234C74.5536 9.02234 74.4059 9.16997 74.1107 9.16997C73.2249 9.3176 72.3391 9.46522 71.601 9.61285C71.1638 9.90811 70.5733 10.0557 69.9828 10.2022C69.6876 10.2022 69.5399 10.3498 69.2447 10.3498C68.8018 10.4975 68.3589 10.4975 67.916 10.6451C67.6208 10.6451 67.4731 10.7927 67.1779 10.7927C66.735 10.9404 66.4397 10.9404 65.9969 11.088C65.7016 11.088 65.4063 11.2356 65.2587 11.2356C64.9646 11.3832 64.6694 11.3832 64.2265 11.5309C63.9312 11.5309 63.636 11.6785 63.4883 11.8261C63.1931 11.9738 62.7502 11.9738 62.455 12.1214C62.1597 12.269 61.8644 12.269 61.7168 12.4166C61.4216 12.5643 61.1263 12.5643 60.6834 12.7119C60.3882 12.8595 60.0929 12.8595 59.9453 13.0071C59.65 13.1548 59.3548 13.1548 59.0595 13.3024C58.7643 13.45 58.6167 13.45 58.3214 13.5976C58.0261 13.7453 57.7309 13.7453 57.4356 13.8929C57.1404 14.0405 56.9928 14.0405 56.6975 14.1882C56.4022 14.3358 56.107 14.3358 55.8117 14.4834C55.3711 14.3358 55.0759 14.4834 54.7806 14.4834C54.4854 14.631 54.1901 14.631 53.8949 14.7787C53.5996 14.9263 53.452 14.9263 53.1567 15.0739C52.8615 15.2215 52.5662 15.2215 52.4186 15.3692C52.1234 15.5168 51.9757 15.5168 51.6805 15.6644C51.3852 15.8121 51.09 15.8121 50.9423 15.9597C50.6471 16.1073 50.4995 16.1073 50.2042 16.2549C49.9089 16.4026 49.7613 16.5502 49.4661 16.5502C49.3184 16.6978 49.0232 16.6978 48.8756 16.8454C48.5803 16.9931 48.4327 17.1407 48.1374 17.1407C47.9898 17.2883 47.6945 17.2883 47.5469 17.4359C47.2517 17.5836 47.104 17.7312 46.8088 17.7312C46.6611 17.8788 46.3659 17.8788 46.2183 18.0265C45.923 18.1741 45.7754 18.3217 45.6278 18.3217C45.4801 18.4693 45.1849 18.4693 45.0373 18.617C44.8896 18.7646 44.5944 18.9122 44.4467 18.9122C44.2991 19.0598 44.1515 19.0598 43.8562 19.2075C43.7086 19.3551 43.4134 19.5027 43.2657 19.6504C43.1181 19.798 42.9705 19.798 42.8228 19.9456C42.6752 20.0932 42.38 20.2409 42.2323 20.3885C42.0847 20.5361 41.9371 20.5361 41.7895 20.6837C41.6418 20.8314 41.3466 20.979 41.199 21.1266C41.0513 21.2743 40.9037 21.2743 40.7561 21.4219C40.6084 21.5695 40.3132 21.7171 40.1656 21.8648C40.0179 22.0124 39.8703 22.0124 39.8703 22.16C39.7227 22.3076 39.4274 22.4553 39.2798 22.7505L39.1322 22.8982C38.8369 23.1934 38.6893 23.341 38.394 23.6363L37.8035 24.2268C37.6559 24.3744 37.6559 24.3744 37.5083 24.522C37.3606 24.6697 37.213 24.8173 37.213 24.9649C37.0654 25.1126 37.0654 25.1126 37.0654 25.2602C36.9178 25.4078 36.9178 25.5554 36.7701 25.7031C36.7701 25.8507 36.6225 25.8507 36.6225 25.9983C36.4749 26.1459 36.4749 26.2936 36.3273 26.4412C36.3273 26.5888 36.1796 26.5888 36.1796 26.7365C36.1796 26.8841 36.032 27.0317 36.032 27.1793C36.032 27.327 36.032 27.327 35.8844 27.4746C35.8844 27.6222 35.7367 27.7698 35.7367 27.7698V28.0651V28.3603V28.6556V29.689C36.4783 34.2608 44.3014 36.623 55.5189 36.623L55.5177 36.6231ZM121.201 102.307L120.02 89.4652H29.9851L28.8041 102.307C27.7707 114.557 31.7566 126.809 39.8739 136.106L43.5636 140.386C44.1541 140.977 44.8922 141.42 45.778 141.42H104.079C104.965 141.42 105.703 141.125 106.293 140.386L109.983 136.106C118.249 126.808 122.235 114.705 121.201 102.307Z" fill="#2A9D8F"/>
</g>
</svg>
