<svg width="205" height="205" viewBox="0 0 205 205" fill="none" xmlns="http://www.w3.org/2000/svg">
<g opacity="0.25" clip-path="url(#clip0_3010_1280)">
<path d="M165.157 125.636L148.025 95.9606C155.728 91.3544 158.237 81.1776 153.594 73.1359C148.951 65.0943 138.882 62.1794 131.043 66.547L113.91 36.8721C111.762 33.1516 106.987 31.8713 103.265 34.0199L76.0717 49.7201C75.489 50.0566 75.2088 50.7456 75.3873 51.3957L76.1379 54.085L30.8314 80.2427C26.9107 82.5064 25.5623 87.5385 27.8259 91.4592L74.8415 172.893C77.1052 176.813 82.1373 178.162 86.058 175.898L131.367 149.739L133.317 151.734C133.788 152.216 134.526 152.318 135.111 151.98L162.305 136.28C166.027 134.133 167.307 129.358 165.158 125.636L165.157 125.636ZM151.037 74.6104C154.866 81.2418 152.84 89.6094 146.548 93.4024L132.518 69.103C138.949 65.55 147.209 67.9792 151.038 74.6106L151.037 74.6104ZM84.5802 173.341C82.0688 174.791 78.8463 173.926 77.3969 171.416L30.3798 89.9801C28.9299 87.4687 29.7942 84.2462 32.3046 82.7968L76.9514 57.02L83.0525 78.9076L76.2774 82.8192C75.5708 83.2272 75.3291 84.1292 75.7371 84.8358L81.5484 94.9014C81.9564 95.608 82.8584 95.8497 83.5651 95.4417L87.0932 93.4047L90.0207 103.909C90.4725 105.525 91.126 107.075 91.9614 108.522C92.7917 109.96 93.8007 111.294 94.964 112.487L102.849 120.555L99.2616 122.627C98.5549 123.035 98.3132 123.937 98.7212 124.644L104.533 134.709C104.941 135.416 105.843 135.657 106.549 135.249L113.364 131.315L129.237 147.561L84.5781 173.341L84.5802 173.341ZM79.0328 84.6367L89.4877 78.6005L93.8228 86.109L83.3678 92.1452L79.0328 84.6367ZM102.016 124.445L112.471 118.409L116.806 125.917L106.351 131.954L102.016 124.445ZM134.623 148.849L116.001 129.789L119.56 127.735C120.266 127.327 120.508 126.425 120.1 125.718L114.289 115.652C113.881 114.946 112.979 114.704 112.272 115.112L105.487 119.029L97.075 110.422C95.0839 108.385 93.628 105.859 92.8638 103.114L89.7335 91.8785L96.576 87.928C97.2827 87.52 97.5244 86.618 97.1164 85.9113L91.3051 75.8458C90.8971 75.1392 89.9951 74.8975 89.2884 75.3055L85.6927 77.3814L78.5351 51.702L104.738 36.5765C107.05 35.2416 110.015 36.0367 111.349 38.348L162.597 127.111C163.932 129.424 163.136 132.388 160.825 133.723L134.623 148.849Z" fill="#2A9D8F"/>
</g>
<defs>
<clipPath id="clip0_3010_1280">
<rect width="150" height="150" fill="white" transform="translate(129.904) rotate(60)"/>
</clipPath>
</defs>
</svg>
