<svg width="150" height="150" viewBox="0 0 150 150" fill="none" xmlns="http://www.w3.org/2000/svg">
<g opacity="0.25">
<path d="M100.781 77.3438C99.375 77.3438 98.4375 76.4062 98.4375 75V72.1875C98.4375 44.0625 87.6563 19.6875 75 19.6875C62.3438 19.6875 51.5625 43.5938 51.5625 72.1875V75C51.5625 76.4062 50.625 77.3438 49.2188 77.3438C47.8125 77.3438 46.875 76.4062 46.875 75V72.1875C46.875 40.3125 59.0625 15 75 15C90.9375 15 103.125 39.8437 103.125 72.1875V75C103.125 76.4062 102.188 77.3438 100.781 77.3438Z" fill="#2A9D8F"/>
<path d="M75 19.6875C73.5937 19.6875 72.6562 18.75 72.6562 17.3438V11.7188C72.6562 10.3125 73.5937 9.375 75 9.375C76.4062 9.375 77.3438 10.3125 77.3438 11.7188V17.3438C77.3438 18.75 76.4062 19.6875 75 19.6875Z" fill="#2A9D8F"/>
<path d="M100.781 77.3438H100.312C99.375 77.3438 98.4375 76.875 97.9688 75.9375C96.0938 70.3125 86.25 65.625 75 65.625C63.75 65.625 53.9062 69.8438 52.0312 75.4688C51.5625 76.4063 50.625 76.875 49.6875 76.875H48.2812C47.3438 76.875 46.875 75.9375 46.875 75.4688C45 68.9063 39.375 64.2188 32.3438 64.2188C28.5938 64.2188 25.3125 65.625 22.5 67.9688C21.5625 68.4375 20.625 68.9063 19.6875 68.4375C18.75 67.9688 18.2812 67.0313 18.2812 66.0938C21.5625 37.0313 45.9375 15 75 15C104.062 15 128.438 37.0313 131.719 66.0938C131.719 67.0313 131.25 67.9688 130.312 68.4375C129.375 68.9063 128.438 68.9062 127.5 67.9688C124.688 65.625 121.406 64.2188 117.656 64.2188C111.094 64.2188 105 68.9063 103.125 75.4688C103.125 76.4063 102.188 76.875 101.719 76.875H100.781C101.25 77.3438 101.25 77.3438 100.781 77.3438ZM75 60.9375C86.25 60.9375 96.0938 64.6875 100.781 70.3125C104.062 63.75 110.625 59.5312 118.125 59.5312C120.938 59.5312 123.75 60 126.094 61.4063C121.406 37.5 99.8438 19.6875 75 19.6875C50.1562 19.6875 28.5937 37.5 23.9062 61.4063C26.25 60.4688 29.0625 59.5312 31.875 59.5312C39.375 59.5312 46.4062 63.75 49.2188 70.3125C53.9062 65.1562 63.75 60.9375 75 60.9375Z" fill="#2A9D8F"/>
<path d="M65.1562 140.625C58.125 140.625 52.9688 135 52.9688 128.438V126.562C52.9688 125.156 53.9062 124.219 55.3125 124.219C56.7188 124.219 57.6562 125.156 57.6562 126.562V127.969C57.6562 132.188 60.9375 135.469 65.1562 135.469C69.375 135.469 72.6562 132.188 72.6562 127.969V63.2812C72.6562 61.875 73.5938 60.9375 75 60.9375C76.4062 60.9375 77.3438 61.875 77.3438 63.2812V127.969C77.3438 135 71.7187 140.625 65.1562 140.625Z" fill="#2A9D8F"/>
</g>
</svg>
