<svg width="100" height="100" viewBox="0 0 100 100" fill="none" xmlns="http://www.w3.org/2000/svg">
<g opacity="0.25">
<path d="M93 48.6264H92.5V34.9674C92.5 30.7044 89.343 27.1754 85.246 26.5694V23.4964C85.246 18.8094 81.433 14.9964 76.746 14.9964H72.98L70.997 9.71142C70.8616 9.35049 70.5924 9.05554 70.2454 8.88778C69.8983 8.72001 69.5 8.69231 69.133 8.81042L49.932 14.9964H10.735C6.746 14.9964 3.5 18.2424 3.5 22.2314V82.7594C3.5 87.4464 7.313 91.2594 12 91.2594H84C88.687 91.2594 92.5 87.4464 92.5 82.7594V69.1004H93C94.93 69.1004 96.5 67.5304 96.5 65.6004V52.1264C96.5 50.1974 94.93 48.6264 93 48.6264ZM74.106 17.9974H76.746C79.778 17.9974 82.246 20.4644 82.246 23.4974V26.4684H77.285L76.986 25.6714L74.106 17.9974ZM69.776 14.9974L72.213 21.4914L74.081 26.4684H24.109L68.691 12.1064L69.776 14.9974ZM10.735 17.9974H40.619L21.779 24.0674L14.326 26.4684H10.735C8.4 26.4684 6.5 24.5684 6.5 22.2334C6.5 19.8984 8.4 17.9974 10.735 17.9974ZM89.5 82.7594C89.5 85.7924 87.032 88.2594 84 88.2594H12C10.5418 88.2578 9.14377 87.6779 8.11267 86.6468C7.08156 85.6156 6.50159 84.2176 6.5 82.7594V28.0954C6.521 28.1114 6.546 28.1214 6.568 28.1374C6.83 28.3224 7.103 28.4914 7.389 28.6414C7.442 28.6694 7.498 28.6934 7.552 28.7204C7.817 28.8514 8.09 28.9664 8.372 29.0644C8.42 29.0814 8.466 29.1004 8.514 29.1164C8.826 29.2174 9.147 29.2934 9.476 29.3514C9.549 29.3644 9.623 29.3744 9.697 29.3854C10.037 29.4344 10.382 29.4684 10.735 29.4684H84C87.032 29.4684 89.5 31.9354 89.5 34.9684V48.6274H79.562C74.875 48.6274 71.062 52.4404 71.062 57.1274V60.6014C71.062 65.2884 74.875 69.1014 79.562 69.1014H89.5V82.7594ZM93.5 65.6004C93.5 65.733 93.4473 65.8602 93.3536 65.954C93.2598 66.0477 93.1326 66.1004 93 66.1004H79.562C78.1038 66.0988 76.7058 65.5189 75.6747 64.4878C74.6436 63.4566 74.0636 62.0586 74.062 60.6004V57.1264C74.062 54.0934 76.53 51.6264 79.562 51.6264H93C93.1326 51.6264 93.2598 51.6791 93.3536 51.7729C93.4473 51.8666 93.5 51.9938 93.5 52.1264V65.6004Z" fill="#2A9D8F"/>
<path d="M83.4494 54.5215C82.2981 54.5225 81.1942 54.9803 80.38 55.7943C79.5658 56.6084 79.1078 57.7121 79.1064 58.8635C79.1064 61.2585 81.0544 63.2055 83.4494 63.2055C85.8444 63.2055 87.7914 61.2575 87.7914 58.8635C87.7901 57.7123 87.3322 56.6087 86.5182 55.7947C85.7042 54.9807 84.6006 54.5228 83.4494 54.5215ZM83.4494 60.2065C82.7094 60.2065 82.1064 59.6045 82.1064 58.8645C82.116 58.5148 82.2616 58.1826 82.5123 57.9386C82.7631 57.6946 83.0991 57.5581 83.4489 57.5581C83.7988 57.5581 84.1348 57.6946 84.3855 57.9386C84.6363 58.1826 84.7819 58.5148 84.7914 58.8645C84.7914 59.6035 84.1894 60.2065 83.4494 60.2065Z" fill="#2A9D8F"/>
</g>
</svg>
