<svg width="150" height="150" viewBox="0 0 150 150" fill="none" xmlns="http://www.w3.org/2000/svg">
<g opacity="0.25">
<path d="M75.3283 139.438C73.4263 139.438 71.5347 139.223 69.667 138.779C48.7701 133.754 37.8916 102.278 45.4136 68.6068C50.1708 47.3071 61.1756 29.475 74.8511 20.9086C82.2166 16.2931 89.9 14.7495 97.0903 16.4475C114.763 20.7117 125.587 43.6708 123.422 72.2844C123.32 73.6554 122.128 74.6923 120.756 74.5755C119.389 74.4714 118.361 73.2789 118.467 71.9102C120.443 45.7789 111.178 24.962 95.9357 21.2823C90.1004 19.9078 83.709 21.2273 77.4889 25.1207C65.1019 32.8797 54.6693 49.9589 50.2622 69.6901C43.3294 100.727 52.551 129.555 70.8215 133.944C86.2563 137.638 104.015 122.186 113.05 97.2731C113.517 95.9845 114.945 95.3116 116.233 95.7842C117.523 96.2511 118.188 97.6759 117.721 98.9667C108.843 123.451 91.6941 139.437 75.3289 139.437L75.3283 139.438Z" fill="#2A9D8F"/>
<path d="M75.6067 131.446C75.356 131.446 75.1043 131.44 74.8514 131.429C74.8456 131.432 74.8399 131.432 74.833 131.432C73.7127 131.432 72.6209 131.232 71.6561 131.058C70.514 130.733 69.7323 130.472 68.9518 130.211C59.5288 126.256 55.2075 115.439 53.4532 109.337C50.1904 97.9569 50.0887 84.1223 53.1648 70.375C56.265 56.7086 62.1472 44.4461 69.7266 35.8399C73.7549 31.1843 82.092 23.3966 91.8812 23.7124C93.1149 23.82 94.2204 23.9196 95.3201 24.2206C96.1154 24.3934 97.0413 24.7012 97.9522 25.1052C107.156 28.9744 111.473 39.7914 113.227 45.8922C115.362 53.1982 116.16 61.5042 115.595 70.569C115.508 71.9365 114.33 73.0146 112.96 72.8932C111.59 72.8074 110.549 71.6287 110.633 70.2588C111.165 61.7718 110.431 54.0392 108.455 47.2757C107.239 43.0403 103.598 32.8687 95.9805 29.6677C95.3282 29.377 94.7217 29.1745 94.1323 29.044C93.337 28.8311 92.5015 28.7556 91.6947 28.6824C83.5294 28.4935 76.2611 35.8888 73.4712 39.1091C66.4159 47.1189 60.9318 58.6065 58.0124 71.4704C55.117 84.4115 55.1937 97.3765 58.2298 107.971C59.444 112.197 63.0902 122.369 70.7027 125.57C71.26 125.747 71.9959 125.991 72.8107 126.237C73.3817 126.324 74.1748 126.47 74.961 126.47C82.9845 126.742 90.4702 119.34 93.3082 116.114C98.1135 110.621 102.205 103.521 105.141 95.5818C105.618 94.291 107.048 93.6375 108.333 94.1136C109.619 94.5897 110.278 96.0167 109.802 97.3055C106.659 105.807 102.249 113.444 97.0437 119.389C93.0348 123.944 85.0092 131.448 75.6066 131.448L75.6067 131.446Z" fill="#2A9D8F"/>
<path d="M80.435 93.1112C80.2325 93.1112 80.0265 93.0883 79.8193 93.0357C74.1029 91.5788 71.1229 83.7363 73.0365 75.1783C74.1947 69.9975 76.9585 65.6041 80.4316 63.4265C82.5145 62.1219 84.7198 61.6927 86.8116 62.1837C88.146 62.4972 88.9757 63.835 88.6633 65.1705C88.3497 66.5083 87.0119 67.3426 85.6741 67.0198C84.6899 66.7921 83.7183 67.2293 83.0717 67.6367C80.7326 69.1015 78.7481 72.4065 77.8853 76.262C76.536 82.3033 78.4415 87.5586 81.0438 88.2198C82.3759 88.5597 83.1793 89.9112 82.8394 91.24C82.5533 92.3649 81.544 93.1112 80.435 93.1112Z" fill="#2A9D8F"/>
<mask id="mask0_3002_1070" style="mask-type:luminance" maskUnits="userSpaceOnUse" x="126" y="73" width="23" height="33">
<path d="M126.855 73.5352H148.799V105.176H126.855V73.5352Z" fill="white"/>
</mask>
<g mask="url(#mask0_3002_1070)">
<path d="M136.243 104.974C135.627 104.974 135.012 104.898 134.406 104.747C128.684 103.424 125.683 95.6098 127.616 86.9684C128.794 81.7052 131.568 77.2811 135.044 75.1375C137.108 73.8626 139.301 73.4632 141.401 73.9782C147.15 75.3217 150.144 83.1267 148.218 91.7587C147.054 97.0196 144.292 101.442 140.833 103.583C139.344 104.503 137.783 104.973 136.242 104.973L136.243 104.974ZM139.605 78.7276C138.993 78.7276 138.34 78.9428 137.653 79.3662C135.332 80.8001 133.344 84.1281 132.467 88.0533C131.069 94.2971 132.981 99.3144 135.569 99.915C136.404 100.121 137.283 99.9322 138.218 99.3554C140.525 97.9283 142.498 94.6026 143.366 90.6797C144.762 84.4301 142.849 79.413 140.261 78.8157C140.246 78.8122 140.232 78.8065 140.217 78.8042C140.02 78.7539 139.814 78.7276 139.605 78.7276Z" fill="#2A9D8F"/>
</g>
<path d="M140.739 78.7941C140.565 78.7941 140.391 78.7769 140.214 78.7392L85.7217 67.0295C84.3816 66.7423 83.5255 65.4205 83.8151 64.0781C84.1023 62.7358 85.4173 61.8889 86.7665 62.1716L141.259 73.8801C142.599 74.1673 143.455 75.4891 143.165 76.8314C142.915 77.9953 141.885 78.7941 140.739 78.7941Z" fill="#2A9D8F"/>
<path d="M134.926 104.818C134.752 104.818 134.578 104.801 134.401 104.764L79.9088 93.055C78.5687 92.7678 77.7139 91.4448 78.0022 90.1037C78.2895 88.7601 79.6067 87.9075 80.9536 88.1971L135.446 99.9056C136.786 100.193 137.642 101.516 137.352 102.857C137.103 104.023 136.073 104.818 134.926 104.818Z" fill="#2A9D8F"/>
<path d="M47.0799 133.538C46.8911 133.538 46.6999 133.517 46.5065 133.471C25.6026 128.535 14.7194 97.0933 22.2508 63.3843C27.008 42.0834 38.014 24.2525 51.6912 15.6861C59.0556 11.073 66.7472 9.53488 73.927 11.225C75.2636 11.5409 76.0899 12.8787 75.7752 14.2142C75.4593 15.5486 74.1169 16.3725 72.786 16.0624C66.9243 14.6811 60.5408 16.004 54.3278 19.8985C41.9408 27.6575 31.5082 44.7344 27.099 64.4679C20.1592 95.5343 29.3787 124.321 47.6493 128.637C48.9837 128.95 49.8111 130.29 49.4964 131.626C49.2274 132.767 48.2078 133.536 47.0805 133.536L47.0799 133.538Z" fill="#2A9D8F"/>
<path d="M96.5214 21.3518C96.3383 21.3518 96.1563 21.3312 95.9732 21.2912L72.8094 16.0693C71.4716 15.7672 70.6304 14.4374 70.9326 13.0983C71.2358 11.7605 72.5645 10.9262 73.9036 11.2215L97.0642 16.4434C98.4043 16.7455 99.2432 18.0753 98.941 19.4144C98.6835 20.5679 97.6558 21.3518 96.5217 21.3518L96.5214 21.3518Z" fill="#2A9D8F"/>
<path d="M70.2449 138.846C70.0606 138.846 69.873 138.825 69.6876 138.785L46.5258 133.479C45.1879 133.171 44.3514 131.839 44.6581 130.502C44.9625 129.162 46.306 128.34 47.6335 128.633L70.7953 133.94C72.1331 134.248 72.9697 135.58 72.663 136.917C72.3998 138.069 71.3756 138.846 70.2449 138.846Z" fill="#2A9D8F"/>
<mask id="mask1_3002_1070" style="mask-type:luminance" maskUnits="userSpaceOnUse" x="1" y="46" width="17" height="32">
<path d="M1.19824 46.582H17.577V77.9297H1.19824V46.582Z" fill="white"/>
</mask>
<g mask="url(#mask1_3002_1070)">
<path d="M9.18184 77.6988C8.99644 77.6988 8.80877 77.6782 8.61992 77.6347C2.8543 76.306 -0.147461 68.4932 1.78555 59.8482C2.94711 54.5886 5.70752 50.1665 9.16573 48.0255C11.2508 46.7323 13.4744 46.3306 15.5929 46.8639C16.925 47.1958 17.7341 48.5451 17.401 49.8759C17.0703 51.2069 15.721 52.0183 14.389 51.6841C13.5879 51.4827 12.7102 51.6738 11.7821 52.2529C9.47495 53.68 7.50328 57.0045 6.63579 60.9274C5.23848 67.1805 7.14963 72.1976 9.73716 72.7938C11.0738 73.1028 11.9081 74.436 11.6003 75.7739C11.3348 76.9217 10.3128 77.6988 9.18213 77.6988L9.18184 77.6988Z" fill="#2A9D8F"/>
</g>
<path d="M28.131 54.5355C27.9594 54.5355 27.7877 54.5184 27.6149 54.4817L14.4758 51.7031C13.1323 51.4193 12.2751 50.0998 12.5578 48.7585C12.8416 47.4138 14.1714 46.5532 15.5024 46.8404L28.6415 49.6191C29.985 49.9029 30.8422 51.2224 30.5595 52.5637C30.3123 53.7333 29.28 54.5355 28.131 54.5355Z" fill="#2A9D8F"/>
<path d="M22.5735 80.6463C22.3961 80.6463 22.2164 80.6292 22.0368 80.588L8.64489 77.641C7.30479 77.3446 6.45676 76.0205 6.75204 74.6806C7.04958 73.3416 8.37597 72.497 9.71249 72.7877L23.1044 75.7356C24.4445 76.032 25.2925 77.356 24.9972 78.696C24.742 79.8576 23.7133 80.6463 22.5735 80.6463Z" fill="#2A9D8F"/>
<path d="M72.0968 131.095C71.9183 131.095 71.7386 131.078 71.5567 131.037C70.2166 130.741 69.372 129.415 69.6672 128.074L76.489 97.2481C76.7866 95.9103 78.1141 95.0635 79.4518 95.3587C80.7919 95.6551 81.6365 96.9804 81.3412 98.3215L74.5194 129.148C74.2631 130.307 73.2367 131.095 72.0968 131.095ZM87.8474 59.9275C87.67 59.9275 87.4881 59.9092 87.3072 59.868C85.9671 59.5716 85.1226 58.2441 85.4178 56.9052L92.2396 26.079C92.536 24.7366 93.8796 23.8886 95.2024 24.1896C96.5425 24.486 97.3871 25.8135 97.0918 27.1524L90.27 57.9786C90.0148 59.1378 88.9872 59.9275 87.8474 59.9275Z" fill="#2A9D8F"/>
<path d="M98.6249 115.769C97.6384 115.769 96.7046 115.174 96.3155 114.199L91.9336 103.167C91.4289 101.893 92.0492 100.448 93.3263 99.9408C94.6035 99.4326 96.0454 100.056 96.5525 101.334L100.934 112.366C101.439 113.639 100.819 115.085 99.5417 115.592C99.2407 115.711 98.9294 115.769 98.6249 115.769ZM77.6525 62.7066C76.6648 62.7066 75.7299 62.1115 75.3431 61.1365L67.2577 40.7546C66.7519 39.4798 67.3756 38.0355 68.6516 37.5296C69.9265 37.0318 71.3707 37.6487 71.8766 38.9235L79.9619 59.3054C80.4666 60.5802 79.8429 62.0245 78.5692 62.5304C78.2671 62.6505 77.9569 62.7066 77.6525 62.7066Z" fill="#2A9D8F"/>
<path d="M53.7363 99.7642C52.8997 99.7642 52.0815 99.3431 51.6134 98.574C50.897 97.4044 51.2667 95.8755 52.4374 95.1592L68.0175 85.6424C69.1916 84.9283 70.7206 85.2945 71.4323 86.4698C72.1487 87.6394 71.7791 89.1683 70.6083 89.8846L55.0283 99.4014C54.6243 99.6486 54.1781 99.7642 53.7363 99.7642ZM109.998 65.5718C109.157 65.5718 108.335 65.145 107.868 64.3736C107.16 63.1983 107.534 61.6717 108.709 60.9611L111.91 59.0248C113.082 58.3141 114.615 58.6929 115.323 59.8636C116.031 61.0389 115.657 62.5656 114.482 63.2761L111.281 65.2125C110.879 65.4563 110.435 65.5718 109.998 65.5718Z" fill="#2A9D8F"/>
</g>
</svg>
